<?xml version="1.0" standalone="no"?>
<!DOCTYPE svg PUBLIC "-//W3C//DTD SVG 20010904//EN"
 "http://www.w3.org/TR/2001/REC-SVG-20010904/DTD/svg10.dtd">
<svg version="1.0" xmlns="http://www.w3.org/2000/svg"
 width="2000.000000pt" height="1125.000000pt" viewBox="0 0 2000.000000 1125.000000"
 preserveAspectRatio="xMidYMid meet">

<g transform="translate(0.000000,1125.000000) scale(0.100000,-0.100000)"
fill="#000000" stroke="none">
<path d="M17484 10670 c-23 -9 -54 -47 -54 -65 0 -5 20 -18 45 -28 24 -10 60
-36 79 -57 38 -42 86 -129 86 -155 0 -9 5 -13 11 -10 6 4 8 14 5 22 -3 8 2 29
11 46 14 28 14 30 0 19 -14 -12 -15 -4 -14 77 2 84 -1 96 -25 92 -4 0 -5 5 -2
13 7 18 -56 56 -92 55 -16 0 -39 -4 -50 -9z"/>
<path d="M17895 10588 c-6 -20 -19 -111 -18 -125 0 -7 -3 -10 -8 -7 -5 3 -9
-2 -9 -11 0 -17 -28 -65 -45 -77 -7 -5 -7 -8 1 -8 5 0 19 6 29 14 11 8 25 12
32 9 7 -3 13 0 13 6 0 15 27 14 33 -1 4 -10 6 -10 6 -1 1 7 7 10 15 7 10 -4
13 0 10 13 -4 14 1 19 18 20 13 0 17 -1 11 -4 -7 -3 -12 -14 -12 -26 1 -17 2
-18 6 -4 2 9 8 17 12 17 11 0 31 47 31 73 0 36 -38 87 -75 103 -42 17 -45 17
-50 2z"/>
<path d="M17284 10365 c-28 -12 -59 -33 -68 -46 -32 -47 -11 -126 43 -153 26
-14 30 -13 62 11 73 55 149 83 229 84 70 1 72 2 30 9 -49 9 -78 20 -128 50
-18 11 -36 20 -40 21 -18 4 -52 23 -52 30 0 17 -29 15 -76 -6z"/>
<path d="M17786 10342 c-3 -5 1 -9 9 -9 8 0 12 4 9 9 -3 4 -7 8 -9 8 -2 0 -6
-4 -9 -8z"/>
<path d="M17650 10315 c0 -14 5 -25 10 -25 6 0 10 11 10 25 0 14 -4 25 -10 25
-5 0 -10 -11 -10 -25z"/>
<path d="M4488 10110 c-67 -72 -124 -135 -126 -140 -2 -6 38 -10 101 -10 l105
0 104 80 c57 44 119 93 138 108 19 15 51 42 70 59 l35 32 -152 1 -151 0 -124
-130z"/>
<path d="M11060 10235 c0 -4 52 -46 230 -188 8 -7 36 -29 61 -50 l47 -38 110
3 110 3 -80 85 c-43 47 -102 109 -129 138 l-49 52 -150 0 c-83 0 -150 -2 -150
-5z"/>
<path d="M17793 10140 c9 -6 17 -15 17 -20 0 -5 12 -23 28 -39 71 -76 95 -113
81 -123 -10 -7 0 -8 31 -4 61 7 100 49 100 109 0 23 -7 52 -15 64 -13 19 -19
21 -46 11 -31 -11 -157 -6 -194 7 -18 6 -18 5 -2 -5z"/>
<path d="M17573 9990 c-4 -16 -8 -18 -19 -9 -11 9 -14 6 -14 -15 0 -15 -6 -29
-14 -32 -20 -8 -27 -45 -13 -63 10 -14 10 -14 -4 -4 -9 7 -20 9 -24 5 -5 -4
-5 -1 0 7 5 9 4 12 -3 7 -6 -3 -12 -1 -15 6 -2 7 -2 2 0 -12 10 -61 109 -92
163 -51 l24 19 -21 44 c-12 24 -25 60 -28 81 -8 40 -24 49 -32 17z"/>
<path d="M4406 9859 c-250 -32 -464 -178 -565 -384 -44 -92 -62 -165 -68 -281
-11 -210 51 -377 196 -525 171 -174 438 -252 701 -205 254 45 470 222 553 453
80 222 44 474 -93 658 -121 162 -300 260 -515 285 -101 11 -112 11 -209 -1z
m320 -308 c93 -50 151 -114 193 -215 23 -54 26 -74 26 -181 0 -104 -4 -127
-24 -175 -55 -125 -149 -211 -271 -247 -74 -23 -199 -22 -275 2 -200 62 -323
279 -286 501 23 139 104 257 214 313 89 45 116 51 237 47 103 -2 108 -3 186
-45z"/>
<path d="M8220 9859 c-143 -17 -256 -61 -365 -141 -82 -60 -130 -114 -181
-199 -210 -350 -79 -808 281 -983 72 -35 201 -76 241 -76 11 0 34 -15 51 -32
172 -184 332 -268 509 -268 144 0 242 34 333 116 l51 45 -67 80 c-36 43 -68
79 -71 79 -2 0 -18 -12 -36 -27 -52 -44 -105 -63 -177 -63 -76 0 -123 16 -174
61 l-36 32 98 48 c238 115 379 329 390 594 11 245 -83 447 -277 592 -155 115
-362 167 -570 142z m255 -283 c118 -43 191 -110 240 -220 93 -210 26 -460
-154 -575 -166 -107 -408 -82 -547 57 -136 135 -165 364 -69 552 45 87 161
175 262 199 78 18 198 13 268 -13z"/>
<path d="M1980 9155 l0 -686 143 3 142 3 5 405 5 405 48 -80 c27 -44 53 -87
58 -95 5 -8 34 -55 63 -105 114 -188 170 -282 203 -332 l33 -53 62 0 c35 0 68
4 74 8 5 4 22 27 35 52 14 25 65 110 113 190 48 80 91 152 95 160 5 8 44 74
88 145 l78 130 5 -415 5 -415 143 -3 142 -3 0 686 0 685 -129 0 -129 0 -102
-172 c-56 -95 -105 -180 -110 -188 -14 -22 -176 -293 -227 -380 -51 -86 -71
-115 -77 -109 -4 5 -325 537 -340 564 -6 11 -47 80 -91 153 l-80 132 -127 0
-128 0 0 -685z"/>
<path d="M5514 9827 c-2 -7 -3 -314 -2 -683 l3 -669 150 0 150 0 5 420 5 420
155 -189 c85 -104 192 -234 238 -290 93 -113 271 -330 288 -352 9 -12 37 -14
135 -12 l124 3 3 683 2 682 -155 0 -155 0 0 -417 -1 -418 -20 25 c-12 14 -32
39 -46 55 -124 148 -442 535 -572 697 l-46 58 -128 0 c-96 0 -129 -3 -133 -13z"/>
<path d="M9310 9393 c0 -492 3 -523 65 -650 61 -123 194 -228 345 -269 91 -25
319 -25 410 0 147 40 288 151 345 271 62 133 65 155 65 648 l0 447 -150 0
-150 0 0 -392 c0 -216 -5 -424 -10 -462 -12 -81 -40 -150 -78 -189 -107 -113
-369 -107 -460 11 -67 87 -66 81 -70 580 l-3 452 -154 0 -155 0 0 -447z"/>
<path d="M11274 9783 c-14 -32 -39 -87 -56 -123 -16 -36 -55 -121 -85 -190
-30 -69 -74 -168 -98 -220 -23 -52 -95 -214 -160 -360 -64 -146 -132 -298
-151 -339 -19 -40 -34 -75 -34 -77 0 -3 71 -3 157 -2 l158 3 60 145 61 145
324 0 325 0 60 -147 60 -148 156 0 c86 0 158 3 161 6 3 3 -11 42 -32 87 -40
88 -118 261 -335 747 -75 168 -159 356 -187 418 l-50 112 -155 0 -154 0 -25
-57z m223 -350 c23 -54 73 -173 111 -265 l69 -168 -223 0 c-123 0 -224 3 -224
7 0 14 215 523 221 523 3 0 24 -44 46 -97z"/>
<path d="M16945 9613 c-123 -29 -192 -103 -210 -225 -13 -87 56 -211 140 -249
49 -23 142 -25 190 -5 46 19 121 95 140 140 46 110 -14 260 -125 313 -49 24
-103 34 -135 26z m113 -130 c69 -52 82 -132 32 -202 -33 -46 -63 -61 -116 -61
-97 0 -164 94 -135 190 30 99 136 135 219 73z"/>
<path d="M16230 9365 l0 -245 34 0 c56 0 68 20 65 114 l-2 81 111 3 c102 2
112 1 112 -15 4 -182 4 -183 73 -183 l37 0 -2 243 -3 242 -37 3 c-54 5 -70
-25 -66 -118 l3 -72 -105 -2 c-58 -1 -110 -1 -115 1 -6 2 -9 34 -7 79 4 89
-10 114 -65 114 l-33 0 0 -245z"/>
<path d="M17300 9365 l0 -245 145 0 145 0 0 29 c0 48 -22 61 -100 61 -108 0
-100 -16 -100 206 l0 194 -45 0 -45 0 0 -245z"/>
<path d="M17857 9558 c-92 -206 -158 -368 -159 -385 -1 -7 -5 -13 -9 -13 -3 0
-9 -9 -12 -20 -4 -17 0 -20 30 -20 48 0 70 14 93 60 l20 40 100 0 100 0 15
-36 c8 -21 23 -43 33 -50 16 -13 102 -20 102 -8 0 3 -9 24 -19 47 -63 139
-111 251 -111 259 0 6 -18 48 -39 94 l-40 84 -40 0 c-40 0 -42 -2 -64 -52z
m116 -240 c-5 -9 -97 -11 -105 -2 -4 3 3 27 13 52 11 26 25 58 31 72 9 24 12
21 38 -45 15 -38 26 -73 23 -77z"/>
<path d="M18252 9368 l3 -243 48 -3 47 -3 0 165 c0 92 4 166 9 166 5 0 16 -24
25 -52 10 -29 36 -104 59 -166 l42 -113 44 3 45 3 26 75 c15 41 32 86 37 100
6 14 21 53 33 88 13 34 25 60 28 58 2 -3 4 -77 3 -166 l-1 -160 55 0 55 0 -2
243 -3 242 -63 3 c-87 4 -101 -7 -137 -109 -16 -46 -30 -86 -31 -89 0 -3 -6
-18 -12 -33 -7 -16 -12 -32 -12 -37 0 -5 -5 -21 -11 -37 -10 -26 -13 -20 -54
100 -23 70 -45 131 -49 134 -3 3 -6 14 -6 24 0 32 -39 49 -112 49 l-68 0 2
-242z"/>
<path d="M18880 9365 l0 -245 160 0 160 0 0 28 c0 55 -16 63 -120 65 l-95 2 0
54 0 54 83 -2 83 -2 -3 48 -3 48 -80 0 -80 1 0 49 0 50 94 3 c103 3 120 12
121 65 l0 27 -160 0 -160 0 0 -245z"/>
<path d="M14270 8893 c-88 -15 -243 -59 -285 -80 -27 -14 -74 -34 -103 -44
-29 -10 -66 -27 -81 -39 -16 -11 -33 -20 -38 -20 -9 0 -110 -61 -196 -118 -60
-40 -248 -233 -309 -319 -115 -160 -213 -363 -278 -578 -22 -71 -93 -364 -110
-450 -6 -33 -15 -73 -20 -90 -15 -49 -27 -140 -79 -590 -11 -94 -30 -194 -81
-435 -17 -80 -42 -208 -55 -285 -59 -348 -55 -328 -92 -387 -13 -21 -23 -43
-23 -50 0 -21 -41 -92 -61 -106 -11 -7 -26 -28 -36 -45 -9 -18 -30 -48 -47
-69 -17 -20 -64 -92 -105 -160 -41 -67 -96 -154 -121 -193 -54 -80 -150 -266
-150 -288 0 -9 -4 -17 -8 -19 -9 -4 -52 -135 -52 -161 0 -10 11 -19 28 -23 15
-4 30 -12 34 -18 4 -6 8 -87 8 -179 0 -149 2 -170 18 -188 11 -11 24 -37 31
-59 6 -21 40 -73 76 -115 79 -93 127 -164 182 -270 42 -81 133 -299 171 -410
22 -65 67 -260 78 -340 11 -81 21 -82 28 -4 9 107 46 260 111 464 83 258 182
448 326 625 33 39 79 149 79 186 0 7 8 20 18 30 15 15 17 36 15 153 -2 154 0
171 28 171 41 0 59 19 59 60 0 38 2 40 31 40 22 0 32 5 36 20 7 25 33 26 39 3
4 -15 17 -18 72 -18 37 0 72 3 79 8 6 4 15 3 18 -3 5 -8 11 -7 21 1 7 6 11 15
8 20 -3 5 5 14 18 19 17 7 9 8 -33 4 -33 -4 -89 0 -140 10 -96 18 -185 19
-345 5 -73 -7 -119 -7 -137 0 -26 10 -64 57 -54 67 13 14 95 24 272 33 105 6
217 14 249 17 l59 6 -24 18 c-13 10 -20 22 -16 26 4 4 17 -3 29 -16 25 -27 33
-15 21 32 -5 18 -6 62 -3 98 4 36 8 61 9 55 2 -5 8 8 15 30 13 40 13 40 21 13
4 -16 11 -28 16 -28 17 0 22 31 10 57 -6 14 -9 28 -6 31 3 4 8 -4 12 -16 10
-38 21 -24 16 21 -4 39 -3 41 11 23 9 -11 16 -26 16 -33 0 -7 5 -13 11 -13 6
0 8 11 5 28 -17 87 -17 98 -2 111 17 15 22 51 6 51 -5 0 -9 25 -8 55 1 30 5
55 10 55 4 0 8 -7 8 -15 0 -8 5 -15 10 -15 6 0 10 -7 10 -16 0 -9 12 -27 26
-41 l26 -23 -7 87 c-5 57 -3 104 5 133 16 64 33 100 46 100 7 0 14 9 17 20 3
11 13 23 24 27 20 8 47 32 42 37 -2 2 -29 14 -59 27 -129 54 -245 158 -294
264 -14 31 -52 86 -84 123 -32 37 -69 87 -81 112 -12 25 -38 70 -56 100 -70
112 -118 283 -135 470 -15 169 -12 327 6 416 14 68 82 254 154 419 12 28 28
70 37 94 16 48 73 115 115 137 31 16 82 12 163 -13 52 -16 65 -21 183 -72 52
-22 88 -31 128 -31 47 0 55 3 50 16 -3 9 -6 17 -6 19 0 14 -119 83 -179 103
-65 22 -92 25 -191 24 -63 0 -129 -3 -147 -7 l-31 -6 75 148 c82 163 103 194
178 268 140 137 224 191 356 229 139 40 245 49 370 30 57 -8 109 -20 116 -26
7 -6 26 -8 42 -5 21 4 39 0 63 -16 18 -12 45 -28 59 -35 53 -27 148 -131 217
-236 40 -60 72 -112 72 -116 0 -3 11 -17 25 -30 14 -13 25 -29 25 -37 0 -7 4
-13 10 -13 18 0 97 -183 118 -275 33 -139 72 -362 72 -406 0 -27 31 -64 43
-52 4 3 7 -14 7 -38 0 -24 7 -71 15 -105 8 -37 12 -86 9 -125 -6 -74 -42 -220
-74 -299 -12 -30 -23 -76 -25 -101 -2 -41 0 -45 19 -43 11 1 24 3 29 3 15 2 7
41 -9 41 -9 0 -14 6 -11 13 2 6 11 11 19 9 8 -1 27 16 42 38 14 22 31 40 36
40 5 0 12 -22 16 -50 4 -27 10 -50 15 -50 5 0 9 5 9 11 0 5 5 7 10 4 15 -9 12
-72 -3 -87 -8 -7 -12 -21 -9 -31 3 -13 -13 -35 -55 -75 -33 -32 -71 -76 -83
-100 -29 -52 -58 -71 -118 -79 -45 -5 -49 -8 -91 -72 -25 -36 -91 -112 -149
-167 l-104 -102 -34 -128 c-59 -218 -58 -457 2 -572 26 -50 103 -139 116 -134
5 1 36 -7 71 -17 34 -11 82 -23 107 -27 24 -3 55 -13 67 -21 28 -18 62 -11
112 23 19 13 45 24 57 24 11 0 53 -21 92 -46 40 -25 98 -53 129 -61 34 -9 63
-24 74 -37 16 -21 30 -24 131 -29 132 -8 186 -29 272 -108 51 -46 57 -49 109
-49 68 0 163 -29 286 -86 92 -43 161 -58 144 -32 -4 7 -10 33 -14 58 -22 141
-41 227 -73 330 -20 63 -41 129 -46 145 -5 17 -19 73 -30 125 -24 102 -70 267
-125 445 -82 264 -94 333 -215 1275 -44 340 -87 596 -117 700 -67 229 -148
442 -231 609 -47 95 -217 272 -342 357 -79 54 -253 142 -405 204 -30 13 -84
27 -140 38 -27 5 -75 19 -105 31 -106 42 -226 59 -310 44z m1280 -1984 c17
-31 6 -46 -29 -41 -17 2 -31 6 -31 7 0 2 4 15 10 29 12 31 35 34 50 5z m-82
-226 c7 -15 8 -31 3 -36 -7 -7 -31 40 -31 59 0 14 17 -1 28 -23z m-581 -1639
c-3 -4 -18 -4 -32 0 -26 7 -34 31 -13 38 15 5 54 -29 45 -38z"/>
<path d="M2345 8811 c-25 -5 -31 -12 -33 -38 l-3 -31 79 5 c130 9 172 -16 174
-102 0 -25 6 -52 13 -61 14 -19 42 -13 51 10 9 22 -112 213 -139 220 -27 7
-102 6 -142 -3z"/>
<path d="M1905 8649 c-265 -144 -537 -356 -671 -523 -161 -201 -187 -365 -76
-488 42 -46 102 -78 279 -149 417 -166 605 -265 687 -360 20 -24 36 -46 36
-50 0 -3 -17 -19 -37 -35 -125 -93 -410 -342 -548 -477 -261 -257 -357 -405
-325 -503 50 -150 401 -16 670 255 145 146 237 289 296 456 23 64 29 100 31
184 l2 103 133 100 c279 210 341 252 334 226 -4 -12 -9 -71 -13 -131 -5 -90
-3 -113 11 -146 51 -112 183 -69 356 116 41 43 70 69 66 58 -4 -11 -20 -77
-34 -147 -21 -98 -24 -132 -16 -145 18 -29 38 -21 61 27 174 363 220 438 256
424 17 -6 48 -73 72 -156 21 -73 66 -135 113 -155 35 -15 39 -14 82 8 25 14
64 49 90 81 25 31 46 55 47 54 2 -1 -12 -70 -31 -152 -56 -244 -88 -411 -84
-446 4 -42 42 -53 57 -16 5 13 31 77 57 143 90 231 223 461 281 488 35 16 50
-7 58 -91 14 -136 42 -188 108 -199 32 -5 45 0 90 30 58 38 135 122 213 232
113 159 134 205 98 219 -9 3 -17 6 -20 6 -2 0 -31 -42 -65 -92 -140 -209 -250
-328 -304 -328 -29 0 -44 35 -55 131 -5 43 -16 92 -25 108 -64 124 -185 41
-327 -224 -21 -38 -38 -67 -38 -64 0 9 111 493 159 692 23 92 41 173 41 179 0
6 53 117 118 247 65 130 123 250 129 268 11 30 10 32 -18 42 l-30 10 -35 -77
c-60 -132 -68 -146 -71 -135 -2 5 12 57 31 114 35 107 34 122 -4 132 -17 4
-24 -7 -50 -89 -41 -127 -143 -534 -216 -853 -9 -41 -20 -79 -25 -85 -5 -6
-41 -59 -79 -117 -74 -115 -121 -162 -154 -157 -29 4 -62 59 -92 152 -14 45
-32 91 -40 103 -63 97 -138 81 -223 -49 -23 -35 -41 -59 -41 -55 0 4 16 61 35
127 39 132 43 168 19 177 -24 9 -40 -15 -63 -93 -27 -91 -96 -191 -215 -310
-88 -89 -154 -134 -195 -134 -45 0 -50 97 -15 277 19 96 16 113 -25 113 -29 0
-215 -129 -460 -318 l-83 -64 -44 50 c-92 105 -274 204 -674 367 -239 97 -290
126 -325 186 -29 49 -26 138 7 206 57 117 198 276 358 404 62 50 246 174 344
231 41 24 46 31 46 63 0 19 -1 35 -2 35 -2 0 -12 -5 -23 -11z m285 -1683 c0
-109 -88 -321 -192 -461 -71 -97 -213 -233 -312 -299 -140 -94 -284 -151 -346
-136 -115 27 127 338 540 692 177 150 294 246 303 247 4 1 7 -19 7 -43z"/>
<path d="M5433 8410 c-47 -140 -175 -658 -307 -1240 -107 -476 -114 -525 -68
-525 21 0 30 16 81 145 92 231 186 403 260 478 58 58 73 42 90 -92 12 -98 33
-144 75 -164 65 -32 148 20 261 162 37 47 71 83 75 81 4 -3 10 -19 14 -36 15
-74 90 -129 159 -115 39 8 94 50 118 91 18 31 24 33 83 37 44 3 82 13 124 34
l60 30 -5 -96 c-4 -81 -2 -103 17 -153 30 -78 73 -112 146 -111 95 2 203 88
340 274 161 216 187 270 130 270 -15 0 -32 -18 -61 -62 -72 -113 -215 -296
-265 -341 -107 -96 -190 -103 -226 -19 -21 50 -20 175 1 248 29 101 94 203
129 204 5 0 6 -24 3 -54 -4 -40 -2 -58 9 -67 22 -18 42 -3 54 41 20 75 -13
140 -72 140 -33 0 -86 -44 -130 -107 -63 -93 -157 -157 -249 -169 l-46 -6 1
93 c0 78 -3 102 -22 140 -38 78 -104 87 -152 21 -12 -16 -37 -35 -57 -43 -27
-11 -52 -39 -120 -138 -129 -190 -218 -283 -278 -293 -27 -4 -44 35 -55 131
-5 44 -16 94 -25 110 -64 124 -185 41 -327 -224 -21 -38 -38 -67 -38 -63 0 10
104 462 150 653 22 88 44 182 50 209 6 27 39 101 73 165 70 132 177 355 177
371 0 5 -15 10 -34 10 -32 0 -35 -3 -67 -77 -65 -152 -77 -158 -34 -18 29 94
29 95 11 95 -10 0 -16 13 -18 38 -3 34 -6 29 -35 -58z m717 -905 c16 -19 27
-175 12 -175 -17 0 -60 57 -67 90 -7 31 0 66 17 88 13 16 23 15 38 -3z m-120
-98 c0 -30 48 -97 89 -126 17 -12 31 -27 31 -33 0 -5 -15 -25 -34 -44 -35 -35
-70 -43 -106 -24 -42 23 -53 137 -19 207 23 48 39 56 39 20z"/>
<path d="M10355 8140 c-10 -11 -15 -23 -12 -26 6 -6 77 33 77 42 0 13 -50 1
-65 -16z"/>
<path d="M9570 8100 c19 -16 43 -30 53 -30 17 0 16 3 -5 29 -16 21 -32 30 -53
30 l-30 0 35 -29z"/>
<path d="M11082 7963 c-18 -93 -33 -172 -32 -176 0 -5 10 -7 22 -5 25 3 24 1
63 198 30 151 30 150 2 150 -21 0 -24 -10 -55 -167z"/>
<path d="M11305 8100 c27 -28 65 -41 65 -22 0 17 -47 52 -70 52 l-24 0 29 -30z"/>
<path d="M9180 8101 c0 -5 -3 -16 -6 -25 -5 -13 3 -16 50 -16 53 0 56 -1 51
-22 -16 -69 -45 -223 -45 -239 0 -13 7 -19 23 -19 21 0 25 8 46 115 13 63 24
126 25 140 1 24 4 25 57 25 43 0 58 4 63 16 3 9 4 20 0 25 -7 12 -264 12 -264
0z"/>
<path d="M10220 8089 l-25 -21 25 7 c33 10 69 10 100 0 25 -8 25 -8 6 13 -24
28 -73 28 -106 1z"/>
<path d="M9735 8088 c-2 -7 -5 -22 -7 -33 -2 -11 -12 -21 -23 -23 -30 -6 -35
-14 -50 -87 -21 -99 -35 -117 -93 -113 -40 3 -47 6 -52 28 -3 13 0 51 7 85 17
81 17 85 -11 85 -21 0 -25 -7 -40 -85 -19 -96 -16 -115 21 -145 30 -24 67 -26
107 -5 35 19 36 19 36 -1 0 -10 7 -14 22 -12 19 3 24 14 39 93 10 49 16 92 14
96 -3 3 9 19 25 34 22 21 30 38 30 62 0 32 -16 46 -25 21z"/>
<path d="M9956 8055 c-4 -16 -13 -25 -25 -25 -10 0 -22 -7 -25 -16 -9 -23 -8
-24 15 -24 19 0 20 -3 13 -37 -5 -21 -8 -63 -9 -93 0 -48 3 -56 26 -69 16 -9
36 -12 52 -7 35 8 36 36 2 36 -35 0 -39 17 -25 100 l12 70 33 0 c21 0 35 6 39
16 9 24 9 24 -29 24 -33 0 -35 2 -29 25 5 22 3 25 -19 25 -18 0 -27 -7 -31
-25z"/>
<path d="M10163 8010 c-40 -24 -63 -67 -63 -120 0 -80 63 -124 143 -100 32 9
41 9 48 -2 19 -29 44 7 60 88 33 164 33 154 6 154 -17 0 -26 -7 -30 -21 l-6
-21 -27 21 c-34 27 -89 27 -131 1z m138 -52 c24 -37 -4 -108 -49 -127 -57 -24
-102 6 -102 66 0 61 69 113 118 87 14 -7 29 -19 33 -26z"/>
<path d="M10465 8018 c-7 -20 -45 -208 -45 -224 0 -8 10 -14 23 -14 20 0 24 8
40 83 13 62 23 87 43 105 29 26 66 29 88 6 20 -19 20 -33 1 -109 -19 -81 -19
-85 10 -85 20 0 25 6 30 38 21 128 59 183 118 168 36 -9 41 -36 22 -124 -18
-90 -19 -82 4 -82 26 0 31 11 47 84 19 89 17 114 -11 141 -30 31 -76 33 -129
6 -37 -19 -38 -19 -58 1 -20 20 -48 21 -122 2 -21 -5 -27 -4 -22 5 5 7 -1 11
-14 11 -11 0 -23 -6 -25 -12z"/>
<path d="M11265 8019 c-36 -21 -63 -56 -76 -98 -11 -36 -10 -47 4 -76 22 -46
68 -69 124 -61 40 5 102 35 78 37 -6 0 -1 4 11 9 25 10 46 76 38 118 -10 48
-46 75 -106 79 -29 2 -62 -2 -73 -8z m110 -49 c35 -38 17 -117 -32 -139 -71
-32 -127 20 -102 96 19 57 98 83 134 43z"/>
<path d="M11535 8018 c-7 -18 -45 -210 -45 -225 0 -7 11 -13 24 -13 21 0 24 6
37 78 10 59 20 83 40 105 30 29 65 35 94 14 15 -12 17 -22 11 -73 -3 -32 -9
-74 -12 -92 -6 -31 -5 -33 17 -30 21 3 26 12 41 83 10 44 16 90 13 102 -13 56
-86 80 -147 49 -24 -13 -28 -13 -28 0 0 17 -39 19 -45 2z"/>
<path d="M11895 8016 c-39 -17 -63 -45 -75 -85 -12 -44 7 -102 40 -118 31 -16
94 -17 122 -2 27 15 33 5 18 -30 -20 -49 -74 -60 -166 -35 -14 4 -23 0 -28
-11 -4 -12 3 -20 29 -31 48 -20 101 -18 151 7 34 16 46 29 58 62 14 37 56 224
56 248 0 19 -42 9 -47 -11 -3 -11 -9 -20 -13 -20 -4 0 -15 9 -25 20 -21 23
-74 26 -120 6z m115 -46 c11 -11 20 -26 20 -34 0 -25 -20 -69 -38 -82 -22 -17
-94 -18 -110 -2 -15 15 -16 72 -1 99 21 40 97 51 129 19z"/>
<path d="M8857 7923 c-4 -3 -7 -12 -7 -20 0 -9 16 -13 59 -13 50 0 59 3 64 20
5 18 0 20 -52 20 -32 0 -61 -3 -64 -7z"/>
<path d="M12287 7923 c-4 -3 -7 -12 -7 -20 0 -9 17 -13 60 -13 53 0 60 2 60
20 0 18 -7 20 -53 20 -30 0 -57 -3 -60 -7z"/>
<path d="M2788 7689 c-25 -24 -28 -32 -18 -44 28 -33 90 -4 90 42 0 35 -38 36
-72 2z"/>
<path d="M14462 7544 c-11 -22 -9 -26 14 -35 15 -5 41 -9 58 -9 17 0 86 -1
152 -3 137 -3 147 4 56 42 -69 28 -173 39 -206 21 -17 -9 -29 -9 -43 -1 -17 8
-22 6 -31 -15z"/>
<path d="M13380 7520 c-19 -11 -52 -27 -72 -36 -50 -22 -48 -41 5 -55 156 -42
159 -42 150 -11 -5 22 21 46 42 38 8 -3 15 -17 15 -31 0 -42 41 -75 94 -75 44
0 64 12 85 48 14 25 47 2 44 -31 -1 -20 4 -26 25 -30 15 -3 29 -4 30 -2 8 7
-10 45 -39 85 -45 62 -120 94 -229 97 -55 1 -84 5 -82 12 3 17 -29 12 -68 -9z
m290 -70 c0 -5 -9 -10 -20 -10 -11 0 -20 5 -20 10 0 6 9 10 20 10 11 0 20 -4
20 -10z"/>
<path d="M14880 7458 c0 -6 26 -36 58 -67 31 -31 65 -67 75 -79 10 -13 21 -21
24 -18 9 9 -34 70 -87 125 -51 51 -70 62 -70 39z"/>
<path d="M14510 7331 c0 -5 -9 -7 -19 -4 -11 3 -40 -5 -65 -18 -50 -24 -114
-74 -106 -82 3 -2 24 -7 48 -10 38 -5 42 -3 37 13 -4 14 4 21 40 32 24 8 47
13 50 10 3 -3 5 -22 5 -42 0 -49 16 -61 91 -67 56 -6 63 -4 79 17 11 15 23 21
34 17 22 -9 20 -24 -4 -32 -30 -9 -24 -22 13 -28 17 -3 60 -13 94 -23 67 -19
91 -13 57 15 -12 9 -29 31 -37 48 -21 40 -85 96 -103 89 -8 -3 -14 1 -14 8 0
13 -16 17 -127 32 -28 4 -43 11 -43 20 0 8 -7 14 -15 14 -8 0 -15 -4 -15 -9z
m105 -81 c-3 -5 -10 -10 -16 -10 -5 0 -9 5 -9 10 0 6 7 10 16 10 8 0 12 -4 9
-10z"/>
<path d="M6045 6896 c-29 -29 -25 -46 10 -46 28 0 57 26 53 49 -5 26 -36 24
-63 -3z"/>
<path d="M13591 6814 c0 -11 3 -14 6 -6 3 7 2 16 -1 19 -3 4 -6 -2 -5 -13z"/>
<path d="M13600 6783 c0 -38 241 -149 306 -141 29 3 29 3 -13 26 -24 12 -43
27 -43 32 0 6 -4 10 -10 10 -5 0 -26 11 -46 25 -27 19 -50 25 -88 25 -28 0
-63 7 -78 14 -16 8 -28 12 -28 9z"/>
<path d="M13970 6669 l-35 -19 68 6 c43 4 77 2 96 -6 16 -6 42 -10 57 -8 l29
4 -40 18 c-59 27 -132 29 -175 5z"/>
<path d="M13376 6554 c-10 -26 -7 -32 22 -46 15 -7 31 -23 37 -36 5 -12 13
-22 17 -22 5 0 8 -6 8 -13 0 -7 11 -29 24 -48 14 -20 41 -68 62 -108 20 -39
40 -71 45 -71 5 0 9 -6 9 -12 1 -23 85 -77 145 -93 105 -27 281 -13 293 23 2
8 -8 12 -27 12 -32 0 -49 19 -36 39 4 7 12 7 25 -2 16 -9 24 -9 40 1 11 6 29
12 40 12 22 0 88 19 178 51 29 10 56 18 60 18 18 -4 73 25 83 42 11 21 1 27
-80 49 -23 6 -75 24 -114 40 -67 26 -191 61 -262 74 -16 3 -50 13 -75 22 -34
12 -91 18 -225 22 l-180 5 -33 28 c-37 33 -47 35 -56 13z m284 -114 c10 -5 54
-13 97 -16 43 -3 98 -7 123 -9 114 -9 171 -19 181 -31 6 -8 23 -11 44 -7 23 4
43 0 59 -10 13 -9 32 -16 42 -16 11 0 35 -4 54 -8 28 -7 35 -14 35 -33 0 -22
-4 -25 -32 -22 -29 2 -33 -1 -33 -23 0 -31 -16 -32 -47 -3 -25 23 -44 18 -23
-7 15 -18 13 -21 -23 -30 -22 -6 -27 -4 -27 11 -1 20 -22 54 -34 54 -4 0 -5
-13 -1 -30 6 -28 4 -30 -21 -30 -15 0 -36 8 -47 18 -19 16 -19 16 -12 -6 6
-21 5 -23 -16 -17 -12 4 -40 7 -62 7 -23 -1 -46 2 -51 6 -6 3 -23 5 -38 3 -19
-2 -31 5 -43 23 -10 14 -21 23 -26 20 -5 -3 -9 -1 -9 5 0 5 -13 12 -29 16 -16
3 -32 13 -35 21 -3 9 -16 14 -32 12 -23 -3 -30 4 -50 42 -21 42 -23 67 -4 55
5 -3 11 -1 15 5 8 13 21 13 45 0z"/>
<path d="M14511 6350 c0 -14 4 -34 9 -45 7 -18 9 -18 15 -3 3 9 0 29 -9 45
l-15 28 0 -25z"/>
<path d="M10526 5018 c11 -13 28 -40 39 -61 22 -45 133 -169 145 -162 11 6 43
-32 36 -43 -7 -11 42 -67 51 -58 4 4 1 12 -5 18 -15 15 -16 28 -2 28 6 0 10
-7 10 -15 0 -8 5 -15 10 -15 6 0 22 -11 35 -24 22 -22 29 -24 57 -15 18 6 41
15 52 20 12 7 16 7 12 0 -4 -7 -1 -8 8 -5 22 8 20 19 -6 37 -13 8 -54 45 -92
82 -38 36 -90 80 -115 98 -25 17 -60 44 -76 59 -27 25 -142 78 -169 78 -5 0
-1 -10 10 -22z"/>
<path d="M10922 4641 c-10 -6 -7 -10 12 -13 18 -4 26 -1 26 8 0 16 -18 18 -38
5z"/>
<path d="M11468 4573 c6 -2 18 -2 25 0 6 3 1 5 -13 5 -14 0 -19 -2 -12 -5z"/>
<path d="M11578 4543 c56 -15 62 -19 62 -42 0 -25 2 -26 68 -26 37 1 72 4 79
8 6 4 14 3 18 -3 11 -18 25 -10 25 15 0 17 8 29 23 35 15 7 5 8 -38 4 -33 -3
-89 0 -125 6 -36 6 -90 13 -120 15 l-55 4 63 -16z"/>
<path d="M13820 4278 c-19 -21 -28 -68 -12 -68 4 0 14 20 23 45 9 25 15 45 13
45 -2 0 -12 -10 -24 -22z"/>
<path d="M13755 4248 c-6 -28 -8 -30 -14 -13 -9 23 -21 -74 -21 -171 0 -108
19 -126 40 -36 7 31 17 62 21 67 4 6 12 28 19 50 9 33 9 45 -4 69 -8 16 -13
33 -11 37 3 4 -1 12 -9 18 -11 9 -15 5 -21 -21z"/>
<path d="M15073 3613 c9 -2 25 -2 35 0 9 3 1 5 -18 5 -19 0 -27 -2 -17 -5z"/>
<path d="M15280 3559 c0 -23 4 -24 64 -25 35 0 72 -4 82 -8 18 -8 18 -8 -1
-16 -18 -8 -18 -9 5 -9 21 -1 25 4 25 28 0 28 -1 29 -65 34 -36 4 -75 9 -87
13 -19 5 -23 2 -23 -17z"/>
<path d="M15288 3503 c7 -3 16 -2 19 1 4 3 -2 6 -13 5 -11 0 -14 -3 -6 -6z"/>
<path d="M15243 3393 c15 -2 37 -2 50 0 12 2 0 4 -28 4 -27 0 -38 -2 -22 -4z"/>
<path d="M15498 3393 c7 -3 16 -2 19 1 4 3 -2 6 -13 5 -11 0 -14 -3 -6 -6z"/>
<path d="M13895 3360 c17 -4 39 -8 50 -8 16 0 15 2 -5 8 -14 4 -36 8 -50 8
-22 0 -22 -1 5 -8z"/>
<path d="M14018 3343 c7 -3 16 -2 19 1 4 3 -2 6 -13 5 -11 0 -14 -3 -6 -6z"/>
<path d="M14161 3313 c9 -2 19 -16 22 -31 5 -24 10 -27 49 -27 24 0 63 -3 88
-5 43 -5 45 -4 48 21 3 26 3 27 -85 32 -48 3 -99 8 -113 10 -14 2 -18 2 -9 0z"/>
<path d="M13810 3106 c0 -7 7 -19 15 -26 12 -10 18 -10 30 0 25 21 18 40 -15
40 -19 0 -30 -5 -30 -14z"/>
<path d="M13766 3074 c-9 -33 -4 -38 29 -30 29 7 31 18 9 40 -22 22 -31 20
-38 -10z"/>
<path d="M13874 3079 c-16 -17 -16 -22 -4 -29 18 -12 50 -13 50 -2 0 18 -13
52 -20 52 -4 0 -15 -9 -26 -21z"/>
<path d="M12952 3031 c-17 -10 -12 -103 6 -109 7 -2 12 6 12 23 0 23 4 26 27
23 19 -2 29 -10 31 -23 9 -50 22 -34 22 28 0 38 -4 67 -10 67 -5 0 -10 -11
-10 -25 0 -21 -5 -25 -29 -25 -24 0 -30 5 -33 25 -2 17 -7 22 -16 16z"/>
<path d="M13091 3014 c-12 -15 -21 -32 -21 -39 0 -23 41 -65 64 -65 63 0 89
71 40 109 -36 28 -58 26 -83 -5z m74 -39 c0 -27 -3 -30 -30 -30 -21 0 -31 5
-33 18 -6 33 6 49 35 45 24 -3 28 -8 28 -33z"/>
<path d="M13647 3033 c-4 -3 -7 -33 -7 -65 l0 -58 40 0 c22 0 40 5 40 10 0 6
-11 10 -25 10 -16 0 -25 6 -25 15 0 8 9 15 20 15 11 0 20 5 20 10 0 6 -9 10
-20 10 -11 0 -20 7 -20 15 0 9 9 15 25 15 16 0 25 6 25 15 0 10 -10 15 -33 15
-19 0 -37 -3 -40 -7z"/>
<path d="M13848 3022 c-6 -21 1 -42 13 -42 6 0 19 9 31 20 23 21 24 19 -26 34
-8 3 -16 -3 -18 -12z"/>
<path d="M13220 2970 l0 -60 40 0 c22 0 40 5 40 10 0 6 -11 10 -25 10 -23 0
-25 3 -25 50 0 38 -4 50 -15 50 -12 0 -15 -13 -15 -60z"/>
<path d="M13361 3008 c-5 -13 -16 -40 -24 -60 -14 -33 -14 -38 -1 -38 7 0 14
5 14 10 0 6 16 10 35 10 19 0 35 -4 35 -10 0 -5 6 -10 14 -10 11 0 9 14 -11
60 -28 63 -48 75 -62 38z m28 -47 c-15 -5 -22 6 -14 19 6 9 10 9 16 -1 5 -8 4
-15 -2 -18z"/>
<path d="M13470 2970 c0 -47 3 -60 15 -60 10 0 15 11 16 38 l1 37 15 -37 c9
-21 21 -38 28 -38 7 0 20 17 28 38 l16 37 0 -37 c1 -27 5 -38 16 -38 12 0 15
13 15 60 0 54 -2 60 -21 60 -14 0 -25 -12 -36 -37 l-16 -38 -15 38 c-11 28
-20 37 -38 37 -23 0 -24 -4 -24 -60z"/>
<path d="M13781 3021 c-7 -5 -10 -14 -7 -20 4 -6 12 -9 17 -6 5 4 9 1 9 -4 0
-6 7 -11 15 -11 9 0 15 9 15 25 0 26 -22 33 -49 16z"/>
<path d="M12150 2989 c0 -25 25 -35 45 -19 22 18 14 32 -18 36 -21 2 -27 -2
-27 -17z"/>
<path d="M12104 2955 c-13 -27 -9 -35 18 -35 24 0 34 26 18 45 -17 20 -23 19
-36 -10z"/>
<path d="M12211 2959 c-11 -18 -11 -23 1 -30 15 -10 39 -8 39 4 -1 4 -1 16 -1
27 0 26 -22 26 -39 -1z"/>
<path d="M11249 2927 c-1 -1 -3 -33 -5 -70 -3 -61 -2 -68 14 -65 9 2 18 9 18
16 1 6 2 17 3 22 0 6 12 10 26 10 20 0 25 -5 25 -25 0 -16 6 -25 15 -25 12 0
15 14 15 65 0 51 -3 65 -15 65 -9 0 -15 -9 -15 -25 0 -20 -5 -25 -25 -25 -20
0 -25 5 -25 24 0 13 -7 26 -15 30 -8 3 -15 4 -16 3z"/>
<path d="M11400 2900 c-27 -27 -25 -66 5 -95 29 -30 55 -32 86 -7 28 23 30 73
4 102 -23 26 -69 26 -95 0z m64 -16 c21 -8 21 -60 0 -68 -38 -14 -71 33 -42
62 14 14 20 14 42 6z"/>
<path d="M11530 2850 l0 -70 45 0 c35 0 43 3 39 15 -4 8 -17 15 -30 15 -22 0
-24 4 -24 55 0 42 -3 55 -15 55 -12 0 -15 -14 -15 -70z"/>
<path d="M11693 2908 c-10 -14 -53 -113 -53 -122 0 -13 28 -5 34 9 3 8 17 15
31 15 14 0 28 -7 31 -15 6 -13 34 -22 34 -10 0 15 -53 135 -60 135 -4 0 -12
-6 -17 -12z m22 -57 c3 -5 1 -12 -5 -16 -5 -3 -10 1 -10 9 0 18 6 21 15 7z"/>
<path d="M11800 2850 c0 -56 3 -70 15 -70 11 0 15 11 16 38 l1 37 12 -35 c18
-51 41 -50 59 2 l15 43 1 -42 c1 -31 5 -43 16 -43 12 0 15 14 15 70 0 39 -4
70 -9 70 -25 0 -41 -15 -51 -46 -13 -38 -24 -37 -35 3 -7 29 -21 43 -42 43 -9
0 -13 -21 -13 -70z"/>
<path d="M11970 2850 l0 -70 46 0 c50 0 59 22 11 28 -15 2 -27 10 -27 18 0 8
3 13 8 13 4 -1 15 -1 25 0 27 2 20 21 -8 21 -34 0 -33 28 2 32 48 6 39 28 -11
28 l-46 0 0 -70z"/>
<path d="M12114 2899 c-8 -13 35 -51 48 -43 4 3 8 16 8 30 0 19 -5 24 -24 24
-14 0 -28 -5 -32 -11z"/>
<path d="M12186 2894 c-7 -18 0 -34 14 -34 15 0 49 33 44 42 -9 14 -52 9 -58
-8z"/>
<path d="M13656 2838 c-39 -47 -33 -88 13 -88 50 0 69 46 30 73 -13 9 -16 17
-10 22 6 3 11 10 11 16 0 18 -17 9 -44 -23z m39 -48 c0 -29 -32 -41 -41 -16
-9 24 4 48 23 44 12 -2 18 -12 18 -28z"/>
<path d="M13033 2837 c-27 -27 -29 -49 -7 -71 30 -31 62 -15 74 38 6 26 5 36
-4 35 -24 -3 -37 1 -31 11 11 18 -9 9 -32 -13z m43 -52 c-3 -9 -14 -15 -23
-13 -22 4 -30 38 -11 49 18 11 43 -15 34 -36z"/>
<path d="M13843 2837 c-38 -37 -25 -87 22 -87 45 0 62 57 25 83 -11 8 -17 17
-13 20 3 4 2 7 -3 6 -5 0 -19 -10 -31 -22z m45 -39 c-2 -15 -11 -24 -25 -26
-19 -3 -23 1 -23 22 0 21 5 26 26 26 21 0 25 -4 22 -22z"/>
<path d="M12830 2805 c0 -25 5 -45 10 -45 6 0 10 12 10 26 l0 25 25 -28 24
-28 1 48 c0 30 -4 46 -10 42 -5 -3 -10 -14 -10 -23 -1 -14 -4 -13 -19 6 -27
31 -31 28 -31 -23z"/>
<path d="M13378 2843 c7 -3 16 -2 19 1 4 3 -2 6 -13 5 -11 0 -14 -3 -6 -6z"/>
<path d="M12910 2817 c0 -66 63 -77 85 -14 12 34 11 37 -6 37 -15 0 -19 -7
-19 -36 0 -28 -3 -35 -17 -32 -12 2 -19 14 -21 36 -4 36 -22 44 -22 9z"/>
<path d="M13126 2824 c-9 -8 -16 -22 -16 -29 0 -20 28 -45 50 -45 31 0 33 18
3 22 -20 2 -28 9 -28 23 0 14 8 21 28 23 15 2 25 8 22 13 -9 14 -42 11 -59 -7z"/>
<path d="M13238 2829 c-19 -11 -23 -45 -9 -67 5 -8 21 -12 37 -10 21 2 30 9
32 26 3 17 -2 22 -17 22 -23 0 -29 -16 -8 -23 6 -2 9 -8 5 -12 -14 -15 -39 5
-36 27 2 17 9 23 26 22 12 0 21 4 19 10 -5 15 -29 18 -49 5z"/>
<path d="M13750 2795 c0 -45 0 -45 35 -45 19 0 35 5 35 10 0 6 -11 10 -25 10
-22 0 -25 4 -25 35 0 19 -4 35 -10 35 -5 0 -10 -20 -10 -45z"/>
<path d="M13910 2830 c0 -5 7 -10 15 -10 11 0 15 -11 15 -36 0 -21 4 -33 10
-29 6 3 10 21 10 40 0 18 6 36 13 38 6 3 -5 6 -25 6 -21 1 -38 -3 -38 -9z"/>
<path d="M13310 2790 c0 -22 5 -40 10 -40 6 0 10 18 10 40 0 22 -4 40 -10 40
-5 0 -10 -18 -10 -40z"/>
<path d="M13357 2795 c-9 -20 -17 -37 -17 -38 0 -1 19 -2 43 -2 l43 0 -15 37
c-20 47 -33 48 -54 3z m37 0 c3 -9 0 -15 -9 -15 -9 0 -12 6 -9 15 4 8 7 15 9
15 2 0 5 -7 9 -15z"/>
<path d="M13443 2823 c12 -3 17 -15 17 -39 0 -19 5 -34 10 -34 6 0 10 15 10
34 0 24 5 36 18 39 9 3 -3 5 -28 5 -25 0 -37 -2 -27 -5z"/>
<path d="M13537 2811 c-10 -41 3 -62 36 -59 37 4 57 30 41 56 -6 9 -25 18 -41
20 -24 2 -32 -1 -36 -17z m58 -21 c0 -15 -6 -26 -16 -28 -12 -2 -16 5 -16 28
0 23 4 30 16 28 10 -2 16 -13 16 -28z"/>
<path d="M11360 2730 c0 -5 5 -10 10 -10 6 0 10 5 10 10 0 6 -4 10 -10 10 -5
0 -10 -4 -10 -10z"/>
<path d="M12004 2725 c-19 -14 -19 -14 2 -15 12 0 24 7 28 15 7 19 -5 19 -30
0z"/>
<path d="M12188 2711 c-17 -16 -28 -39 -28 -54 0 -22 -5 -27 -25 -27 -22 0
-25 4 -25 40 0 22 -4 40 -10 40 -5 0 -10 -23 -10 -51 l0 -50 33 5 c17 2 34 5
37 6 3 1 18 1 33 0 53 -3 75 42 39 78 -10 10 -16 24 -14 30 6 18 0 15 -30 -17z
m40 -45 c2 -10 -2 -22 -9 -26 -20 -13 -39 0 -39 27 0 20 4 24 22 21 13 -2 24
-11 26 -22z"/>
<path d="M11130 2675 c0 -25 5 -45 10 -45 6 0 10 12 10 28 l0 27 21 -32 c12
-18 23 -33 25 -33 2 0 4 23 4 50 0 28 -5 50 -10 50 -6 0 -8 -12 -5 -27 l6 -28
-21 28 c-30 38 -40 34 -40 -18z"/>
<path d="M11216 2712 c-8 -13 5 -76 17 -84 26 -17 48 -7 63 27 18 43 18 55 0
55 -9 0 -16 -12 -18 -32 -2 -22 -9 -34 -20 -36 -15 -3 -18 4 -18 37 0 37 -11
53 -24 33z"/>
<path d="M11698 2713 c7 -3 16 -2 19 1 4 3 -2 6 -13 5 -11 0 -14 -3 -6 -6z"/>
<path d="M11331 2701 c-7 -5 -11 -22 -9 -42 3 -31 6 -34 40 -37 38 -3 38 -3
52 58 5 24 3 26 -32 27 -21 1 -44 -2 -51 -6z m54 -36 c0 -13 -8 -21 -22 -23
-19 -3 -23 1 -23 23 0 22 4 26 23 23 14 -2 22 -10 22 -23z"/>
<path d="M11436 2695 c-21 -22 -20 -48 3 -69 22 -20 52 -18 59 3 3 8 0 11 -7
7 -21 -13 -52 4 -49 27 2 17 10 22 31 22 15 -1 26 4 24 10 -6 17 -43 17 -61 0z"/>
<path d="M11550 2692 c-18 -14 -21 -25 -16 -45 11 -45 86 -51 86 -7 0 14 -6
20 -22 19 -13 0 -17 -3 -10 -6 19 -8 14 -23 -8 -23 -11 0 -23 7 -26 15 -9 22
15 47 37 40 23 -8 26 10 3 19 -21 8 -19 9 -44 -12z"/>
<path d="M12263 2699 c11 -6 17 -22 17 -44 0 -19 5 -35 10 -35 6 0 10 18 10
39 0 22 5 42 13 44 6 3 -6 6 -28 6 -32 0 -36 -2 -22 -10z"/>
<path d="M13124 2688 l-19 -23 23 19 c21 18 27 26 19 26 -2 0 -12 -10 -23 -22z"/>
<path d="M13160 2702 c0 -6 -14 -28 -32 -49 -29 -34 -29 -35 -4 -13 31 28 50
59 42 68 -3 3 -6 0 -6 -6z"/>
<path d="M11630 2655 c0 -25 5 -45 10 -45 6 0 10 20 10 45 0 25 -4 45 -10 45
-5 0 -10 -20 -10 -45z"/>
<path d="M11676 2659 c-9 -23 -14 -44 -10 -48 4 -3 9 0 11 7 6 15 35 16 51 0
21 -21 25 1 7 42 -10 22 -24 40 -30 40 -7 0 -20 -19 -29 -41z m44 -11 c0 -5
-6 -8 -14 -8 -9 0 -12 7 -9 21 4 16 8 17 14 7 5 -7 9 -16 9 -20z"/>
<path d="M11760 2690 c0 -5 6 -10 14 -10 10 0 16 -13 19 -37 l4 -38 1 38 c1
25 7 37 16 37 8 0 18 5 21 10 4 6 -10 10 -34 10 -23 0 -41 -4 -41 -10z"/>
<path d="M11868 2678 c-7 -47 3 -68 31 -68 32 0 51 16 51 45 0 29 -19 45 -51
45 -21 0 -28 -5 -31 -22z m60 -20 c-4 -33 -35 -36 -35 -3 0 18 5 25 19 25 14
0 19 -6 16 -22z"/>
<path d="M11972 2688 c-7 -7 -12 -21 -12 -33 0 -46 57 -62 84 -24 31 45 -33
96 -72 57z m56 -31 c3 -22 -1 -27 -18 -27 -23 0 -35 22 -26 46 10 25 41 12 44
-19z"/>
<path d="M13082 2637 c-12 -13 -20 -26 -17 -29 3 -2 -5 -10 -18 -17 -12 -6
-28 -24 -34 -38 -11 -23 -7 -21 21 11 19 20 35 40 36 44 1 4 11 17 22 30 12
12 19 22 16 22 -2 0 -14 -10 -26 -23z"/>
<path d="M13009 2633 c-13 -16 -12 -17 4 -4 16 13 21 21 13 21 -2 0 -10 -8
-17 -17z"/>
<path d="M13376 2603 c-6 -14 -5 -15 5 -6 7 7 10 15 7 18 -3 3 -9 -2 -12 -12z"/>
<path d="M13620 2590 c-12 -16 -27 -30 -34 -30 -7 0 -13 -7 -13 -15 0 -13 4
-12 20 2 22 21 61 73 53 73 -2 0 -14 -13 -26 -30z"/>
<path d="M11700 2589 c0 -5 5 -7 10 -4 6 3 10 8 10 11 0 2 -4 4 -10 4 -5 0
-10 -5 -10 -11z"/>
<path d="M12843 2585 c-3 -9 -3 -18 -1 -21 3 -3 8 4 11 16 6 23 -1 27 -10 5z"/>
<path d="M11469 2542 c-19 -21 -46 -53 -62 -70 -15 -18 -32 -32 -38 -32 -5 0
-7 -5 -4 -10 7 -11 70 36 70 50 0 13 67 92 73 86 3 -3 -2 -14 -10 -23 -27 -32
-30 -49 -4 -20 26 28 34 57 17 57 -5 0 -24 -17 -42 -38z"/>
<path d="M12964 2565 c-4 -9 -20 -16 -43 -16 -24 -1 -28 -3 -13 -6 18 -4 22
-9 17 -26 l-6 -22 18 21 c10 12 27 26 38 32 11 6 14 12 7 12 -7 0 -10 5 -7 10
3 6 4 10 0 10 -3 0 -8 -7 -11 -15z"/>
<path d="M13086 2561 c-4 -6 -15 -10 -23 -9 -9 2 -17 -3 -19 -10 -1 -7 0 -8 3
-2 3 8 9 7 19 -1 11 -9 14 -9 14 1 0 10 3 10 15 0 13 -10 19 -9 37 6 21 19 21
19 14 -1 -6 -16 -5 -18 5 -7 9 8 10 15 3 22 -8 8 -15 6 -24 -5 -11 -14 -14
-14 -25 1 -9 12 -14 14 -19 5z"/>
<path d="M13827 2558 c-10 -5 -17 -14 -17 -20 0 -7 5 -6 15 2 12 10 15 10 15
-1 0 -9 3 -10 8 -3 4 6 16 15 26 21 17 10 17 11 -6 11 -14 0 -32 -5 -41 -10z"/>
<path d="M13175 2549 c-4 -6 -5 -12 -2 -15 2 -3 7 2 10 11 7 17 1 20 -8 4z"/>
<path d="M13199 2543 c-12 -16 -12 -17 1 -7 8 7 24 14 35 17 19 4 19 5 -1 6
-12 0 -28 -7 -35 -16z"/>
<path d="M13325 2550 c-3 -6 1 -7 9 -4 18 7 21 14 7 14 -6 0 -13 -4 -16 -10z"/>
<path d="M13435 2550 c-4 -6 1 -7 11 -3 12 4 15 3 10 -5 -10 -17 -1 -15 14 3
10 13 9 15 -8 15 -12 0 -24 -4 -27 -10z"/>
<path d="M13628 2553 c7 -3 16 -2 19 1 4 3 -2 6 -13 5 -11 0 -14 -3 -6 -6z"/>
<path d="M13660 2545 c-7 -9 -11 -18 -8 -20 3 -3 11 1 18 10 7 9 11 18 8 20
-3 3 -11 -1 -18 -10z"/>
<path d="M13696 2543 c-6 -14 -5 -15 5 -6 7 7 10 15 7 18 -3 3 -9 -2 -12 -12z"/>
<path d="M13191 2499 c-19 -22 -32 -42 -29 -45 3 -2 22 16 42 41 46 55 34 59
-13 4z"/>
<path d="M13625 2530 c3 -5 8 -10 11 -10 2 0 4 5 4 10 0 6 -5 10 -11 10 -5 0
-7 -4 -4 -10z"/>
<path d="M11336 2463 c-34 -48 -41 -54 -47 -37 -7 16 -8 17 -8 2 -1 -14 -8
-17 -33 -13 l-33 5 33 -11 c23 -7 32 -15 28 -25 -10 -26 12 -15 30 15 11 19
23 27 33 24 11 -3 12 -2 4 4 -10 7 -6 18 13 47 14 21 24 39 22 41 -2 2 -21
-22 -42 -52z"/>
<path d="M12975 2494 c-9 -14 -15 -27 -13 -30 2 -2 12 10 22 26 21 37 15 40
-9 4z"/>
<path d="M12135 2473 l-17 -28 23 22 c12 12 20 25 17 28 -3 3 -13 -7 -23 -22z"/>
<path d="M11702 2449 c-18 -21 -30 -39 -25 -38 10 1 67 68 62 74 -2 2 -19 -14
-37 -36z"/>
<path d="M11941 2466 l-22 -23 28 5 c15 3 22 7 15 10 -10 3 -10 7 -1 18 19 23
4 16 -20 -10z"/>
<path d="M15670 2480 c0 -17 26 -30 38 -18 18 18 14 26 -13 26 -14 0 -25 -4
-25 -8z"/>
<path d="M11207 2463 c-3 -5 12 -8 33 -8 21 0 36 3 33 8 -2 4 -17 7 -33 7 -16
0 -31 -3 -33 -7z"/>
<path d="M15637 2450 c-6 -23 3 -32 22 -20 15 8 8 40 -8 40 -5 0 -11 -9 -14
-20z"/>
<path d="M15722 2458 c-18 -18 -14 -28 12 -28 19 0 23 4 19 20 -6 23 -14 25
-31 8z"/>
<path d="M11411 2435 c0 -5 4 -17 9 -25 6 -10 10 -11 10 -2 0 6 5 12 11 12 5
0 7 -4 4 -10 -3 -5 -1 -10 4 -10 6 0 11 5 11 11 0 5 4 8 9 4 5 -3 13 -1 16 5
4 7 -6 9 -29 7 -20 -2 -37 1 -40 7 -2 6 -5 7 -5 1z"/>
<path d="M12121 2433 c0 -6 -4 -20 -7 -30 -4 -13 -3 -15 4 -4 7 9 12 10 16 2
4 -6 13 -11 19 -11 8 0 8 3 -1 9 -11 7 -11 9 2 14 9 4 16 12 16 18 0 7 -7 5
-19 -5 -18 -17 -19 -17 -24 1 -3 10 -5 13 -6 6z"/>
<path d="M14980 2390 c0 -38 4 -50 15 -50 8 0 15 7 15 15 0 8 9 15 20 15 13 0
20 -7 20 -20 0 -11 4 -20 9 -20 13 0 18 39 10 80 -6 31 -7 33 -14 13 -9 -29
-45 -31 -45 -3 0 11 -7 20 -15 20 -11 0 -15 -12 -15 -50z"/>
<path d="M11494 2408 l-19 -23 23 19 c21 18 27 26 19 26 -2 0 -12 -10 -23 -22z"/>
<path d="M11578 2421 c10 -6 10 -10 -3 -21 -12 -10 -15 -10 -15 4 0 10 -5 14
-11 10 -8 -4 -8 -9 0 -17 8 -8 3 -19 -16 -39 -15 -15 -24 -30 -21 -33 5 -6 88
87 88 99 0 3 -8 6 -17 6 -14 0 -15 -2 -5 -9z"/>
<path d="M11785 2421 c-3 -7 0 -8 10 -5 11 5 14 2 9 -10 -3 -9 -2 -16 4 -16
13 0 8 33 -5 37 -6 2 -14 -1 -18 -6z"/>
<path d="M11914 2415 c-4 -8 -10 -13 -14 -10 -5 3 -11 2 -14 -3 -2 -4 4 -8 14
-9 10 -1 20 7 23 18 6 22 -1 26 -9 4z"/>
<path d="M11970 2415 c-16 -19 -5 -32 13 -17 8 7 16 10 19 7 3 -3 10 0 16 8 8
10 6 13 -12 15 -13 1 -30 -5 -36 -13z"/>
<path d="M12076 2399 c-14 -17 -26 -38 -25 -47 0 -11 4 -8 10 8 6 14 20 35 31
47 12 13 19 23 16 23 -4 0 -18 -14 -32 -31z"/>
<path d="M15101 2416 c-22 -26 -9 -69 22 -80 36 -13 61 2 65 38 4 35 -14 56
-48 56 -15 0 -33 -6 -39 -14z m59 -22 c11 -12 11 -18 -1 -30 -20 -19 -53 3
-43 29 8 21 27 22 44 1z"/>
<path d="M15200 2380 l0 -50 36 0 c21 0 33 4 29 10 -3 6 -13 10 -21 10 -10 0
-14 12 -14 40 0 29 -4 40 -15 40 -11 0 -15 -12 -15 -50z"/>
<path d="M15305 2380 c-26 -50 -27 -76 -3 -52 16 16 55 15 61 0 2 -7 8 -10 12
-6 10 10 -14 84 -31 99 -10 8 -19 -2 -39 -41z"/>
<path d="M15407 2424 c-11 -11 -8 -104 3 -104 6 0 14 10 19 22 l8 23 7 -23
c10 -29 22 -28 40 6 l15 27 1 -27 c0 -16 5 -28 10 -28 6 0 10 25 10 55 0 43
-3 55 -15 55 -9 0 -22 -14 -29 -32 l-13 -31 -14 28 c-15 30 -30 40 -42 29z"/>
<path d="M15537 2423 c-4 -3 -7 -28 -7 -55 l0 -48 35 0 c19 0 35 5 35 10 0 6
-9 10 -20 10 -11 0 -20 5 -20 10 0 6 7 10 15 10 8 0 15 7 15 15 0 9 -6 12 -15
9 -8 -4 -15 -1 -15 5 0 6 9 11 20 11 11 0 20 7 20 15 0 15 -50 22 -63 8z"/>
<path d="M11935 2409 c-4 -6 -5 -12 -2 -15 2 -3 7 2 10 11 7 17 1 20 -8 4z"/>
<path d="M15650 2410 c-13 -9 -13 -11 0 -20 19 -12 35 -8 35 10 0 18 -16 22
-35 10z"/>
<path d="M15700 2400 c0 -22 7 -25 29 -11 16 10 6 31 -15 31 -8 0 -14 -9 -14
-20z"/>
<path d="M11320 2348 c-22 -37 -25 -48 -10 -48 6 0 10 7 10 15 0 9 7 27 16 40
9 14 13 25 10 25 -3 0 -15 -15 -26 -32z"/>
<path d="M11855 2359 c-4 -6 -5 -12 -2 -15 2 -3 7 2 10 11 7 17 1 20 -8 4z"/>
<path d="M12856 2282 c-3 -5 1 -9 9 -9 8 0 12 4 9 9 -3 4 -7 8 -9 8 -2 0 -6
-4 -9 -8z"/>
<path d="M14890 2273 c0 -18 20 -56 20 -39 0 5 9 1 20 -9 19 -18 20 -17 21 6
l0 24 9 -22 c13 -32 48 -30 60 3 13 32 13 44 0 44 -5 0 -10 -11 -10 -25 0 -16
-6 -25 -15 -25 -9 0 -15 9 -15 25 0 14 -4 25 -10 25 -5 0 -10 -6 -10 -12 0
-10 -3 -9 -9 1 -5 7 -13 11 -19 7 -6 -3 -13 -2 -17 4 -10 16 -25 12 -25 -7z"/>
<path d="M15057 2275 c-11 -8 -17 -23 -15 -37 2 -18 9 -23 33 -23 24 0 31 5
33 23 2 12 -3 29 -12 37 -17 18 -16 18 -39 0z m33 -35 c0 -21 -24 -28 -35 -10
-8 14 3 30 21 30 8 0 14 -9 14 -20z"/>
<path d="M15546 2265 c-14 -14 -28 -21 -31 -15 -10 15 -52 12 -59 -5 -14 -37
33 -62 62 -33 9 9 12 9 12 0 0 -7 13 -12 30 -12 27 0 30 3 30 30 0 17 -4 30
-10 30 -5 0 -7 7 -4 15 9 22 -2 18 -30 -10z m-46 -35 c0 -11 -6 -20 -13 -20
-7 0 -13 9 -13 20 0 11 6 20 13 20 7 0 13 -9 13 -20z m78 3 c-5 -26 -38 -29
-38 -4 0 15 6 21 21 21 14 0 19 -5 17 -17z"/>
<path d="M15692 2263 c-12 -13 -22 -28 -22 -31 1 -19 20 -33 41 -30 29 4 37
38 17 67 -13 19 -14 18 -36 -6z m36 -30 c-2 -10 -10 -18 -18 -18 -8 0 -16 8
-18 18 -2 12 3 17 18 17 15 0 20 -5 18 -17z"/>
<path d="M15322 2273 c1 -5 -4 -21 -10 -36 -7 -16 -12 -29 -12 -31 0 -1 15 -2
34 -2 l33 0 -13 32 c-7 17 -10 34 -7 38 4 3 -1 6 -10 6 -9 0 -16 -3 -15 -7z
m18 -43 c0 -5 -5 -10 -11 -10 -5 0 -7 5 -4 10 3 6 8 10 11 10 2 0 4 -4 4 -10z"/>
<path d="M13090 2260 c0 -5 5 -10 11 -10 5 0 7 5 4 10 -3 6 -8 10 -11 10 -2 0
-4 -4 -4 -10z"/>
<path d="M13120 2255 c0 -6 9 -11 19 -12 12 -1 18 3 15 11 -6 16 -34 17 -34 1z"/>
<path d="M13176 2253 c-6 -15 35 -13 51 3 9 9 5 11 -17 10 -16 0 -32 -6 -34
-13z"/>
<path d="M15127 2263 c-13 -12 -7 -51 9 -57 24 -9 44 -7 44 4 0 6 -8 10 -18
10 -24 0 -32 8 -25 26 3 9 13 12 24 9 11 -4 19 -2 19 4 0 12 -43 15 -53 4z"/>
<path d="M15210 2255 c-25 -31 16 -69 51 -47 13 9 19 8 22 -1 3 -7 5 6 5 28 0
22 -3 31 -5 19 -3 -17 -10 -20 -31 -17 -21 4 -24 2 -12 -6 8 -5 11 -13 7 -17
-4 -4 -12 -3 -18 3 -16 16 -3 44 16 37 8 -3 15 -1 15 5 0 16 -36 13 -50 -4z"/>
<path d="M15758 2258 c5 -7 12 -24 15 -38 4 -22 4 -21 6 7 0 17 7 34 14 36 6
3 -1 6 -17 6 -22 1 -26 -2 -18 -11z"/>
<path d="M13350 2250 c0 -5 5 -10 10 -10 6 0 10 5 10 10 0 6 -4 10 -10 10 -5
0 -10 -4 -10 -10z"/>
<path d="M15378 2253 c6 -2 12 -16 12 -29 0 -13 5 -24 10 -24 6 0 10 11 10 24
0 13 6 27 13 29 6 3 -4 5 -23 5 -19 0 -29 -2 -22 -5z"/>
<path d="M15620 2230 c0 -26 3 -30 28 -29 16 1 20 3 10 6 -11 3 -18 14 -18 29
0 13 -4 24 -10 24 -5 0 -10 -13 -10 -30z"/>
<path d="M12831 2188 c1 -30 2 -31 8 -9 l7 25 21 -30 22 -29 0 40 c-1 33 -2
36 -8 15 l-7 -25 -15 23 c-19 31 -29 28 -28 -10z"/>
<path d="M12920 2190 c-7 -17 -10 -33 -7 -37 3 -3 9 6 13 21 3 14 10 23 16 20
5 -3 7 -12 4 -19 -2 -7 2 -16 10 -19 8 -3 14 -3 14 0 0 8 -30 64 -34 64 -2 0
-9 -14 -16 -30z"/>
<path d="M13579 2203 c-13 -16 -12 -17 4 -4 16 13 21 21 13 21 -2 0 -10 -8
-17 -17z"/>
<path d="M12992 2175 c1 -29 2 -33 5 -13 l4 28 24 -28 24 -27 -1 40 c-1 29 -2
33 -5 13 l-4 -28 -24 28 -24 27 1 -40z"/>
<path d="M13072 2198 c-6 -6 -12 -16 -12 -22 0 -5 6 -2 13 8 18 25 51 17 55
-13 3 -21 1 -23 -27 -19 -16 2 -28 1 -25 -4 9 -15 54 -8 61 8 14 36 -38 69
-65 42z"/>
<path d="M13180 2169 c0 -38 1 -40 28 -37 23 3 27 8 30 38 3 33 3 34 -12 15
-8 -11 -10 -21 -5 -23 17 -6 9 -22 -11 -22 -27 0 -29 56 -2 63 13 4 11 5 -5 6
-20 1 -23 -4 -23 -40z"/>
<path d="M14564 2199 c-6 -11 24 -31 36 -24 18 11 11 31 -11 31 -11 0 -22 -3
-25 -7z"/>
<path d="M13265 2169 c-9 -17 -14 -33 -11 -37 3 -3 6 0 6 6 0 7 11 12 25 12
14 0 25 -5 25 -12 0 -6 3 -9 6 -6 6 6 -23 68 -31 68 -2 0 -12 -14 -20 -31z
m29 6 c3 -9 0 -15 -9 -15 -9 0 -12 6 -9 15 4 8 7 15 9 15 2 0 5 -7 9 -15z"/>
<path d="M13337 2193 c-4 -3 -7 -11 -7 -17 0 -7 3 -7 8 0 4 7 18 14 32 17 l25
4 -26 2 c-14 0 -29 -2 -32 -6z"/>
<path d="M11870 2174 c-17 -10 -18 -13 -5 -8 11 3 34 10 50 14 27 7 28 8 5 9
-14 0 -36 -7 -50 -15z"/>
<path d="M11988 2183 c6 -2 18 -2 25 0 6 3 1 5 -13 5 -14 0 -19 -2 -12 -5z"/>
<path d="M14530 2175 c0 -8 0 -18 -1 -22 -1 -12 15 -13 30 -4 12 8 12 12 2 25
-17 20 -31 20 -31 1z"/>
<path d="M14624 2181 c4 -5 0 -12 -6 -14 -10 -4 -9 -8 2 -16 8 -6 18 -7 23 -2
9 9 -2 41 -15 41 -5 0 -7 -4 -4 -9z"/>
<path d="M12045 2168 c11 -6 34 -22 50 -37 17 -14 14 -9 -7 12 -20 20 -43 37
-50 37 -7 0 -4 -6 7 -12z"/>
<path d="M15179 2153 c-13 -16 -12 -17 4 -4 20 15 23 2 5 -19 -11 -12 -10 -12
5 -1 18 14 23 41 8 41 -5 0 -15 -8 -22 -17z"/>
<path d="M11156 2144 c-5 -14 -4 -15 9 -4 10 8 15 9 15 1 0 -13 36 -15 45 -2
3 6 -3 9 -12 9 -10 0 -25 2 -34 6 -11 5 -19 1 -23 -10z"/>
<path d="M11803 2128 c-34 -36 -53 -69 -53 -90 1 -7 8 3 16 22 8 19 29 50 46
68 18 17 30 32 27 32 -3 0 -19 -15 -36 -32z"/>
<path d="M13333 2150 c2 -8 16 -16 33 -17 25 -1 26 0 4 4 -14 3 -29 10 -33 17
-6 7 -7 6 -4 -4z"/>
<path d="M13870 2110 c0 -27 5 -50 10 -50 6 0 10 7 10 15 0 22 38 18 45 -5 12
-37 25 -21 25 30 0 38 -4 50 -15 50 -8 0 -15 -7 -15 -15 0 -8 -9 -15 -20 -15
-13 0 -20 7 -20 20 0 11 -4 20 -10 20 -5 0 -10 -22 -10 -50z"/>
<path d="M13986 2134 c-21 -21 -20 -47 2 -67 37 -34 82 -15 82 35 0 43 -53 64
-84 32z m48 -10 c21 -8 20 -40 -1 -48 -9 -4 -23 0 -31 8 -13 12 -13 18 -2 30
14 18 13 18 34 10z"/>
<path d="M14090 2100 c0 -49 1 -50 31 -50 17 0 28 4 24 10 -3 6 -13 10 -21 10
-10 0 -14 12 -14 40 0 22 -4 40 -10 40 -5 0 -10 -22 -10 -50z"/>
<path d="M11270 2130 c18 -12 30 -13 30 -2 0 4 -10 9 -22 9 -18 2 -20 0 -8 -7z"/>
<path d="M11345 2130 c3 -5 8 -10 11 -10 2 0 4 5 4 10 0 6 -5 10 -11 10 -5 0
-7 -4 -4 -10z"/>
<path d="M14197 2113 c-8 -16 -18 -38 -21 -51 -7 -21 -6 -22 19 -10 21 9 31 9
47 -1 30 -18 32 -8 9 43 -23 53 -35 57 -54 19z m33 -23 c0 -5 -4 -10 -10 -10
-5 0 -10 5 -10 10 0 6 5 10 10 10 6 0 10 -4 10 -10z"/>
<path d="M14290 2090 c0 -54 19 -71 21 -17 l1 32 14 -32 c13 -30 34 -45 34
-25 0 5 7 17 16 28 15 18 15 18 11 -8 -3 -19 0 -28 9 -28 10 0 14 14 14 50 0
43 -3 50 -20 50 -13 0 -22 -9 -26 -25 -3 -14 -10 -25 -14 -25 -4 0 -11 11 -14
25 -4 16 -13 25 -26 25 -17 0 -20 -7 -20 -50z"/>
<path d="M14420 2090 l0 -50 35 0 c19 0 35 5 35 10 0 6 -9 10 -20 10 -11 0
-20 5 -20 10 0 6 7 10 15 10 8 0 15 5 15 10 0 6 -7 10 -15 10 -8 0 -15 5 -15
10 0 6 9 10 20 10 11 0 20 5 20 10 0 6 -16 10 -35 10 l-35 0 0 -50z"/>
<path d="M14540 2130 c-13 -8 -12 -11 5 -24 23 -17 35 -12 35 15 0 21 -16 24
-40 9z"/>
<path d="M14593 2124 c-3 -8 -2 -19 3 -24 12 -11 48 16 39 29 -9 16 -35 13
-42 -5z"/>
<path d="M11681 2114 c0 -11 3 -14 6 -6 3 7 2 16 -1 19 -3 4 -6 -2 -5 -13z"/>
<path d="M15655 2090 c-10 -11 -16 -22 -14 -24 2 -2 12 7 22 20 22 29 17 32
-8 4z"/>
<path d="M11141 2065 c1 -32 2 -35 8 -16 l7 25 21 -30 22 -29 0 45 c-1 38 -2
41 -8 15 l-6 -29 -22 29 -22 30 0 -40z"/>
<path d="M14980 2090 c-12 -7 -12 -12 -2 -22 9 -9 12 -9 12 5 0 20 20 22 39 5
11 -11 13 -10 9 2 -5 18 -37 24 -58 10z"/>
<path d="M15090 2047 c-22 -30 -40 -60 -40 -68 1 -8 9 2 20 22 10 19 32 50 48
67 17 18 26 32 21 32 -4 0 -26 -24 -49 -53z"/>
<path d="M11225 2061 c-9 -18 -14 -35 -11 -39 3 -3 6 0 6 6 0 16 37 15 43 0 4
-9 6 -8 6 2 0 8 -6 26 -13 39 l-14 25 -17 -33z m25 -1 c0 -5 -5 -10 -11 -10
-5 0 -7 5 -4 10 3 6 8 10 11 10 2 0 4 -4 4 -10z"/>
<path d="M11291 2053 c1 -25 3 -30 6 -14 l5 23 15 -21 c18 -26 31 -20 31 14 0
13 -5 22 -10 19 -5 -3 -7 -13 -4 -23 4 -9 -5 -3 -19 12 l-25 28 1 -38z"/>
<path d="M12006 2075 c-3 -8 -1 -15 4 -15 6 0 10 7 10 15 0 8 -2 15 -4 15 -2
0 -6 -7 -10 -15z"/>
<path d="M12030 2074 c0 -8 5 -12 10 -9 6 4 8 11 5 16 -9 14 -15 11 -15 -7z"/>
<path d="M13522 2065 c0 -16 2 -22 5 -12 2 9 2 23 0 30 -3 6 -5 -1 -5 -18z"/>
<path d="M11363 2064 c-9 -24 10 -49 38 -49 20 0 24 5 24 30 0 25 -4 30 -28
33 -18 2 -29 -2 -34 -14z m57 -19 c0 -18 -5 -25 -19 -25 -11 0 -23 5 -26 10
-11 18 3 40 25 40 15 0 20 -7 20 -25z"/>
<path d="M11471 2043 c1 -21 3 -30 6 -20 2 9 13 17 23 17 10 0 21 -8 23 -17 3
-10 4 -2 3 17 -1 30 -5 35 -29 38 -25 3 -27 1 -26 -35z m49 17 c0 -5 -9 -10
-20 -10 -11 0 -20 5 -20 10 0 6 9 10 20 10 11 0 20 -4 20 -10z"/>
<path d="M11960 2070 c0 -5 5 -10 10 -10 6 0 10 5 10 10 0 6 -4 10 -10 10 -5
0 -10 -4 -10 -10z"/>
<path d="M13024 2048 c-16 -18 -21 -26 -11 -19 20 16 21 14 5 -30 -12 -34 -12
-34 -19 -9 -6 20 -7 17 -8 -17 -1 -23 -3 -50 -6 -60 -3 -10 0 -7 6 7 41 86 50
111 44 120 -3 5 -2 10 3 10 6 0 12 7 16 15 8 22 3 19 -30 -17z"/>
<path d="M11626 2061 c-3 -4 6 -6 19 -3 14 2 25 6 25 8 0 8 -39 4 -44 -5z"/>
<path d="M12145 1989 c0 -43 3 -71 7 -61 9 23 9 114 0 128 -4 7 -7 -23 -7 -67z"/>
<path d="M15030 2059 c-22 -4 -27 -7 -13 -8 17 -1 21 -5 16 -18 -4 -14 0 -12
17 5 27 28 25 30 -20 21z"/>
<path d="M15124 2059 c-2 -5 5 -6 16 -4 11 2 20 -2 20 -8 0 -8 3 -8 9 2 7 10
13 11 31 1 18 -10 21 -9 18 1 -5 15 -86 21 -94 8z"/>
<path d="M15350 2061 c0 -6 4 -13 10 -16 6 -3 7 1 4 9 -7 18 -14 21 -14 7z"/>
<path d="M15255 2050 c-3 -5 -1 -10 4 -10 6 0 11 5 11 10 0 6 -2 10 -4 10 -3
0 -8 -4 -11 -10z"/>
<path d="M15386 2049 c4 -8 30 -6 38 2 3 3 -5 5 -19 5 -13 0 -22 -3 -19 -7z"/>
<path d="M15536 2052 c-2 -4 4 -8 15 -8 10 0 19 4 19 8 0 4 -6 8 -14 8 -8 0
-17 -4 -20 -8z"/>
<path d="M15650 2050 c-8 -5 -10 -10 -5 -10 6 0 17 5 25 10 8 5 11 10 5 10 -5
0 -17 -5 -25 -10z"/>
<path d="M11547 2025 c-3 -7 5 -10 24 -7 35 5 36 8 5 14 -14 3 -27 0 -29 -7z"/>
<path d="M11849 2028 c-1 -1 -3 -16 -5 -31 -2 -22 1 -28 14 -25 20 4 24 49 5
56 -7 2 -14 2 -14 0z m21 -18 c0 -5 -4 -10 -10 -10 -5 0 -10 5 -10 10 0 6 5
10 10 10 6 0 10 -4 10 -10z"/>
<path d="M11896 2022 c-8 -13 0 -46 11 -49 5 -2 16 3 23 12 10 12 10 18 0 30
-14 17 -26 19 -34 7z m24 -12 c0 -5 -4 -10 -10 -10 -5 0 -10 5 -10 10 0 6 5
10 10 10 6 0 10 -4 10 -10z"/>
<path d="M11966 2021 c-8 -12 0 -45 12 -49 6 -2 18 8 27 22 10 14 21 23 27 20
5 -4 5 -10 -1 -18 -7 -9 -4 -12 14 -12 18 0 22 3 14 13 -6 6 -9 16 -6 20 3 4
-15 9 -39 9 -24 1 -46 -1 -48 -5z m24 -11 c0 -5 -4 -10 -10 -10 -5 0 -10 5
-10 10 0 6 5 10 10 10 6 0 10 -4 10 -10z"/>
<path d="M15217 2012 c-19 -20 -23 -37 -7 -27 10 6 33 45 27 45 -2 0 -11 -8
-20 -18z"/>
<path d="M11628 2008 c6 -6 18 -8 28 -6 14 3 12 5 -9 10 -19 3 -25 2 -19 -4z"/>
<path d="M11743 1985 c0 -22 2 -30 4 -17 2 12 2 30 0 40 -3 9 -5 -1 -4 -23z"/>
<path d="M13942 1995 c-10 -11 -18 -13 -32 -5 -16 8 -19 6 -22 -15 -4 -35 -22
-36 -26 -2 -4 33 -22 36 -22 4 0 -49 44 -63 62 -19 l11 27 6 -25 c5 -19 13
-25 36 -25 23 0 30 6 36 27 4 15 4 27 1 26 -20 -2 -32 3 -27 12 9 15 -8 11
-23 -5z m36 -32 c5 -18 -28 -29 -38 -12 -5 7 -6 17 -3 22 7 12 35 5 41 -10z"/>
<path d="M14434 1983 c-18 -18 -29 -23 -32 -15 -2 7 -17 12 -33 12 -26 0 -29
-4 -29 -30 0 -27 3 -30 30 -30 17 0 30 5 30 11 0 8 4 8 14 -1 26 -20 61 -8 64
23 2 16 -2 27 -8 27 -7 0 -10 7 -6 15 8 22 1 19 -30 -12z m-44 -33 c0 -11 -6
-20 -13 -20 -7 0 -13 9 -14 20 -1 11 4 20 13 20 8 0 14 -9 14 -20z m78 3 c-5
-26 -38 -29 -38 -4 0 15 6 21 21 21 14 0 19 -5 17 -17z"/>
<path d="M13781 1969 c1 -19 3 -26 6 -16 5 18 6 18 24 1 18 -17 19 -16 18 17
-1 19 -3 26 -6 16 -5 -18 -6 -18 -24 -1 -18 17 -19 16 -18 -17z"/>
<path d="M14208 1993 c7 -3 16 -2 19 1 4 3 -2 6 -13 5 -11 0 -14 -3 -6 -6z"/>
<path d="M14586 1981 c-24 -26 -17 -56 13 -56 37 0 50 30 25 55 -20 21 -20 21
-38 1z m32 -28 c-2 -10 -10 -18 -18 -18 -8 0 -16 8 -18 18 -2 12 3 17 18 17
15 0 20 -5 18 -17z"/>
<path d="M14005 1970 c-4 -12 -1 -27 5 -35 14 -17 50 -20 50 -5 0 6 -9 10 -21
10 -14 0 -19 5 -17 18 2 9 11 16 21 16 9 -1 17 2 17 7 0 19 -49 9 -55 -11z"/>
<path d="M14094 1976 c-11 -29 1 -51 29 -54 22 -3 27 1 27 17 0 13 -6 21 -17
21 -14 0 -15 -2 -4 -9 10 -6 10 -10 1 -16 -16 -10 -34 10 -26 30 4 11 12 14
27 10 15 -5 19 -4 15 4 -10 16 -46 14 -52 -3z"/>
<path d="M14640 1980 c0 -5 5 -10 10 -10 6 0 10 -12 11 -27 l1 -28 8 29 c5 16
15 33 22 37 8 6 1 9 -19 9 -18 0 -33 -4 -33 -10z"/>
<path d="M12846 1965 c3 -11 7 -29 6 -40 0 -11 2 -14 5 -7 4 10 8 10 21 0 16
-12 16 -11 1 7 -9 11 -22 29 -28 40 l-13 20 8 -20z"/>
<path d="M14160 1950 c0 -28 1 -29 45 -27 25 1 45 3 45 4 0 11 -25 53 -32 53
-5 0 -13 -11 -20 -25 -13 -28 -32 -23 -23 6 4 11 2 19 -4 19 -6 0 -11 -13 -11
-30z m65 0 c3 -5 1 -10 -4 -10 -6 0 -11 5 -11 10 0 6 2 10 4 10 3 0 8 -4 11
-10z"/>
<path d="M14266 1972 c7 -4 14 -18 17 -32 l4 -25 2 27 c0 14 7 29 14 31 6 3
-1 6 -18 6 -16 0 -25 -3 -19 -7z"/>
<path d="M14510 1950 c0 -26 3 -30 28 -29 16 1 20 3 10 6 -11 3 -18 14 -18 29
0 13 -4 24 -10 24 -5 0 -10 -13 -10 -30z"/>
<path d="M11465 1940 c3 -5 8 -10 11 -10 2 0 4 5 4 10 0 6 -5 10 -11 10 -5 0
-7 -4 -4 -10z"/>
<path d="M12021 1934 c0 -11 3 -14 6 -6 3 7 2 16 -1 19 -3 4 -6 -2 -5 -13z"/>
<path d="M11751 1924 c0 -11 3 -14 6 -6 3 7 2 16 -1 19 -3 4 -6 -2 -5 -13z"/>
<path d="M11424 1905 c-4 -8 -4 -22 0 -30 3 -8 1 -15 -4 -15 -6 0 -10 -5 -10
-11 0 -24 28 12 32 41 5 31 -8 41 -18 15z"/>
<path d="M13049 1918 c-6 -21 -5 -37 2 -32 5 3 7 9 4 14 -3 4 1 11 7 13 10 4
10 6 1 6 -7 1 -13 0 -14 -1z"/>
<path d="M15558 1903 c7 -3 16 -2 19 1 4 3 -2 6 -13 5 -11 0 -14 -3 -6 -6z"/>
<path d="M12096 1852 c-36 -42 -36 -44 -7 -17 28 25 58 66 49 65 -2 -1 -21
-22 -42 -48z"/>
<path d="M12895 1814 c0 -73 2 -81 11 -58 7 17 8 39 3 56 -4 16 -6 35 -3 43 3
8 2 20 -3 29 -5 9 -8 -20 -8 -70z"/>
<path d="M13015 1890 c-3 -5 -16 -15 -27 -21 -18 -10 -20 -9 -15 5 10 27 0 18
-21 -18 l-20 -34 41 28 c23 16 44 27 48 25 3 -2 6 2 6 10 0 18 -3 19 -12 5z"/>
<path d="M15026 1892 c-2 -4 21 -8 52 -9 45 -1 50 1 27 7 -41 11 -73 11 -79 2z"/>
<path d="M12021 1874 c0 -11 3 -14 6 -6 3 7 2 16 -1 19 -3 4 -6 -2 -5 -13z"/>
<path d="M14014 1858 l-29 -33 31 28 c17 15 34 24 39 20 4 -5 5 -2 1 5 -9 16
-8 17 -42 -20z"/>
<path d="M15630 1887 c0 -3 12 -12 26 -22 15 -9 23 -12 20 -6 -7 11 -46 35
-46 28z"/>
<path d="M11782 1862 c18 -26 77 -72 92 -72 6 0 2 6 -9 12 -11 6 -38 27 -59
47 -24 22 -33 27 -24 13z"/>
<path d="M15449 1853 l-24 -28 28 24 c15 14 27 26 27 28 0 8 -8 1 -31 -24z"/>
<path d="M11240 1840 c0 -17 -5 -30 -12 -30 -7 0 1 -9 19 -19 17 -11 36 -28
42 -38 8 -13 11 -14 10 -3 -4 27 13 70 26 70 8 0 17 5 21 12 4 7 3 8 -5 4 -6
-4 -17 -4 -24 2 -19 14 -49 23 -42 12 3 -6 13 -10 21 -10 8 0 14 -2 14 -5 0
-11 -24 -55 -30 -55 -17 0 -32 32 -28 60 3 16 1 30 -4 30 -4 0 -8 -13 -8 -30z"/>
<path d="M11371 1856 c-7 -9 -8 -22 -3 -37 9 -22 10 -21 14 14 5 42 5 42 -11
23z"/>
<path d="M13324 1851 c8 -12 -19 -33 -29 -23 -4 4 -2 -3 4 -16 10 -19 10 -27
-1 -40 -11 -13 -11 -15 4 -9 10 3 26 -3 41 -19 18 -18 27 -21 33 -13 4 7 3 9
-3 6 -18 -11 -25 25 -8 43 8 9 15 20 15 24 0 5 -9 -2 -19 -15 -15 -19 -22 -21
-32 -12 -18 18 -3 43 25 43 19 0 24 4 19 16 -5 13 -7 13 -14 2 -6 -8 -9 -9 -9
-2 0 7 -7 15 -16 18 -8 3 -13 2 -10 -3z"/>
<path d="M15040 1842 c0 -7 -5 -10 -11 -6 -7 4 -10 1 -7 -7 3 -8 16 -15 30
-16 21 -1 25 2 20 19 -3 15 -1 19 9 16 8 -3 13 -12 13 -21 -1 -9 2 -14 7 -11
11 6 12 33 2 35 -38 7 -63 3 -63 -9z"/>
<path d="M12780 1846 c0 -2 7 -7 16 -10 8 -3 12 -2 9 4 -6 10 -25 14 -25 6z"/>
<path d="M13065 1838 c-4 -9 -5 -29 -2 -45 4 -26 4 -25 6 7 l2 35 19 -35 c11
-19 19 -30 19 -25 0 6 -8 26 -19 45 -15 28 -20 32 -25 18z"/>
<path d="M15607 1829 c7 -7 15 -10 18 -7 3 3 -2 9 -12 12 -14 6 -15 5 -6 -5z"/>
<path d="M11391 1797 c-6 -19 -8 -42 -5 -52 5 -12 4 -16 -4 -11 -19 11 -20
-113 -1 -154 9 -19 20 -45 23 -57 6 -19 4 -22 -11 -17 -15 6 -15 5 2 -9 19
-15 21 -14 33 21 18 52 28 59 52 37 21 -19 28 -65 10 -65 -5 0 -10 -5 -10 -12
0 -6 8 -4 19 6 23 21 18 46 -16 78 l-25 23 -19 -24 -19 -23 -1 28 c-1 29 -1
29 -8 4 -7 -24 -8 -23 -19 15 -7 22 -12 57 -12 79 0 34 7 45 56 93 31 29 54
57 50 60 -3 3 -15 -2 -26 -12 -11 -10 -18 -20 -15 -23 6 -7 -15 -32 -27 -32
-5 0 -6 6 -2 13 5 8 2 8 -9 -2 -20 -16 -22 -5 -7 35 6 15 9 29 6 31 -2 2 -9
-11 -15 -30z"/>
<path d="M15155 1821 l20 -8 -20 -6 c-18 -5 -18 -6 -1 -4 29 3 32 27 4 26 -21
0 -22 -1 -3 -8z"/>
<path d="M15190 1819 c0 -5 9 -9 20 -9 11 0 20 2 20 4 0 2 -9 6 -20 9 -11 3
-20 1 -20 -4z"/>
<path d="M11186 1805 c-11 -8 -14 -15 -8 -15 16 0 15 -35 -2 -49 -21 -18 -44
14 -28 40 11 18 11 18 -7 7 -16 -9 -17 -16 -8 -35 5 -13 14 -23 18 -23 5 0 6
-7 3 -15 -4 -8 -1 -15 5 -15 6 0 10 5 9 12 -2 7 6 16 17 22 16 7 21 18 20 47
0 22 0 39 0 39 0 -1 -9 -7 -19 -15z"/>
<path d="M13964 1798 l-19 -23 25 20 c14 11 27 21 29 22 2 2 0 3 -6 3 -5 0
-18 -10 -29 -22z"/>
<path d="M14194 1798 l-19 -23 23 19 c21 18 27 26 19 26 -2 0 -12 -10 -23 -22z"/>
<path d="M13220 1801 c0 -5 5 -13 10 -16 6 -3 10 -2 10 4 0 5 -4 13 -10 16 -5
3 -10 2 -10 -4z"/>
<path d="M11995 1790 c-13 -6 -15 -9 -5 -9 8 0 22 4 30 9 18 12 2 12 -25 0z"/>
<path d="M12108 1793 c7 -3 16 -2 19 1 4 3 -2 6 -13 5 -11 0 -14 -3 -6 -6z"/>
<path d="M12188 1793 c7 -3 16 -2 19 1 4 3 -2 6 -13 5 -11 0 -14 -3 -6 -6z"/>
<path d="M13388 1777 c-3 -19 -2 -25 4 -19 6 6 8 18 6 28 -3 14 -5 12 -10 -9z"/>
<path d="M14370 1785 c-7 -8 -16 -13 -20 -10 -5 3 -11 2 -14 -3 -2 -4 6 -8 19
-8 14 0 22 2 20 5 -3 2 0 10 6 18 6 7 9 13 6 13 -2 0 -10 -7 -17 -15z"/>
<path d="M11341 1754 c-28 -47 -23 -53 8 -8 13 19 22 37 19 40 -3 3 -15 -12
-27 -32z"/>
<path d="M11898 1783 c7 -3 16 -2 19 1 4 3 -2 6 -13 5 -11 0 -14 -3 -6 -6z"/>
<path d="M12240 1773 c14 -9 34 -23 46 -32 11 -9 5 -1 -15 17 -19 17 -39 32
-45 32 -6 0 1 -7 14 -17z"/>
<path d="M13895 1774 c-9 -9 -14 -18 -11 -21 2 -3 14 5 25 16 12 12 17 21 12
21 -5 0 -17 -7 -26 -16z"/>
<path d="M14016 1781 c-3 -4 4 -7 14 -6 27 2 33 10 10 12 -11 1 -22 -2 -24 -6z"/>
<path d="M14079 1775 c7 -16 5 -25 -11 -42 -12 -13 -17 -23 -12 -23 9 0 64 64
64 74 0 4 -4 6 -10 6 -5 0 -9 -3 -9 -7 4 -22 -3 -25 -17 -7 -15 19 -15 19 -5
-1z"/>
<path d="M14461 1774 c0 -11 3 -14 6 -6 3 7 2 16 -1 19 -3 4 -6 -2 -5 -13z"/>
<path d="M14571 1778 c-1 -10 3 -18 8 -18 5 0 15 8 22 18 13 15 12 16 -3 4
-13 -10 -17 -10 -21 0 -4 8 -6 7 -6 -4z"/>
<path d="M15480 1772 c0 -10 7 -19 15 -19 8 0 15 9 15 19 0 10 -7 18 -15 18
-8 0 -15 -8 -15 -18z"/>
<path d="M15520 1769 c0 -24 23 -21 28 4 2 10 -3 17 -12 17 -10 0 -16 -9 -16
-21z"/>
<path d="M15590 1778 c0 -9 -6 -19 -12 -21 -10 -4 -10 -6 0 -6 14 -1 28 26 18
36 -3 4 -6 -1 -6 -9z"/>
<path d="M15614 1769 c0 -9 5 -15 11 -12 7 2 12 10 12 17 0 7 -5 13 -12 13 -6
0 -11 -8 -11 -18z"/>
<path d="M15702 1765 c0 -16 2 -22 5 -12 2 9 2 23 0 30 -3 6 -5 -1 -5 -18z"/>
<path d="M14196 1772 c-3 -5 1 -9 9 -9 8 0 12 4 9 9 -3 4 -7 8 -9 8 -2 0 -6
-4 -9 -8z"/>
<path d="M14256 1768 c3 -5 10 -6 15 -3 13 9 11 12 -6 12 -8 0 -12 -4 -9 -9z"/>
<path d="M14395 1769 c-3 -4 2 -6 10 -5 21 3 28 13 10 13 -9 0 -18 -4 -20 -8z"/>
<path d="M12019 1753 c-13 -16 -12 -17 4 -4 16 13 21 21 13 21 -2 0 -10 -8
-17 -17z"/>
<path d="M13227 1750 c-18 -21 -14 -24 18 -10 11 5 14 9 7 9 -7 1 -10 6 -7 11
10 17 0 11 -18 -10z"/>
<path d="M13929 1753 c-13 -16 -12 -17 4 -4 9 7 17 15 17 17 0 8 -8 3 -21 -13z"/>
<path d="M1361 1744 c0 -11 3 -14 6 -6 3 7 2 16 -1 19 -3 4 -6 -2 -5 -13z"/>
<path d="M11641 1744 c0 -11 3 -14 6 -6 3 7 2 16 -1 19 -3 4 -6 -2 -5 -13z"/>
<path d="M13088 1728 c21 -46 32 -48 31 -5 -1 17 -3 24 -6 14 -4 -16 -6 -15
-23 5 -19 23 -19 23 -2 -14z"/>
<path d="M12992 1719 c-29 -14 -61 -34 -70 -44 -16 -19 -16 -19 3 -3 17 14 89
48 102 48 2 0 1 -5 -3 -12 -4 -7 -3 -8 5 -4 6 4 9 11 6 16 -3 4 1 10 7 13 7 2
11 6 8 8 -3 2 -29 -7 -58 -22z"/>
<path d="M15101 1718 c-4 -13 -18 -48 -29 -79 -26 -71 -29 -143 -8 -191 21
-48 20 -51 -6 -42 -49 15 -51 14 -9 -6 53 -25 63 -16 54 45 -4 32 -1 44 16 59
21 19 28 60 12 70 -4 3 -6 -6 -3 -19 3 -17 -1 -27 -12 -31 -24 -9 -29 1 -15
28 11 20 11 22 -3 10 -13 -10 -15 -27 -11 -75 5 -72 -11 -61 -22 16 -7 46 -6
48 32 85 21 20 43 44 49 52 5 9 1 7 -8 -3 -10 -11 -18 -16 -18 -13 0 4 -9 2
-20 -4 -12 -6 -18 -16 -14 -23 5 -9 4 -9 -5 -1 -9 8 -8 19 3 45 8 19 18 37 22
41 8 9 15 58 8 58 -2 0 -8 -10 -13 -22z m14 -108 c-3 -5 -12 -10 -18 -10 -7 0
-6 4 3 10 19 12 23 12 15 0z"/>
<path d="M11219 1716 c6 -7 7 -17 3 -21 -4 -5 0 -6 8 -3 8 3 29 -1 45 -9 26
-12 14 -13 -21 -2 -7 2 -11 0 -10 -6 0 -5 17 -10 37 -10 22 0 45 -8 57 -19 18
-16 18 -11 -6 34 -21 42 -28 49 -30 32 -4 -27 -3 -27 -53 -3 -23 11 -36 14
-30 7z"/>
<path d="M11447 1723 c6 -4 13 -22 16 -38 4 -27 5 -27 3 4 0 21 -7 36 -16 38
-10 3 -11 2 -3 -4z"/>
<path d="M11979 1713 c-13 -16 -12 -17 4 -4 16 13 21 21 13 21 -2 0 -10 -8
-17 -17z"/>
<path d="M13173 1715 c-9 -7 6 -10 52 -10 36 0 65 3 65 7 0 11 -102 14 -117 3z"/>
<path d="M15606 1718 c3 -5 10 -6 15 -3 13 9 11 12 -6 12 -8 0 -12 -4 -9 -9z"/>
<path d="M12875 1690 c-4 -17 -5 -34 -2 -36 2 -3 7 10 11 27 8 42 0 50 -9 9z"/>
<path d="M15410 1717 c-1 -30 58 -98 85 -97 5 1 -2 7 -17 16 -15 8 -37 31 -47
52 -11 20 -20 33 -21 29z"/>
<path d="M9575 1700 c-3 -5 -1 -10 4 -10 6 0 11 5 11 10 0 6 -2 10 -4 10 -3 0
-8 -4 -11 -10z"/>
<path d="M12062 1690 c0 -14 2 -19 5 -12 2 6 2 18 0 25 -3 6 -5 1 -5 -13z"/>
<path d="M12319 1685 c17 -54 21 -61 16 -25 -3 19 -10 39 -15 44 -7 7 -7 1 -1
-19z"/>
<path d="M15054 1691 c-16 -12 -20 -25 -17 -43 3 -14 0 -29 -6 -32 -6 -4 -11
-15 -11 -24 1 -25 40 24 40 50 0 11 5 28 11 40 14 27 8 30 -17 9z"/>
<path d="M11125 1690 c-4 -6 9 -10 31 -10 42 0 42 4 2 14 -15 3 -30 2 -33 -4z"/>
<path d="M12180 1690 c-12 -7 -10 -9 7 -7 12 0 19 5 17 9 -6 10 -6 10 -24 -2z"/>
<path d="M13129 1683 c-13 -16 -12 -17 4 -4 9 7 17 15 17 17 0 8 -8 3 -21 -13z"/>
<path d="M11731 1674 c0 -11 3 -14 6 -6 3 7 2 16 -1 19 -3 4 -6 -2 -5 -13z"/>
<path d="M11407 1650 c6 -33 8 -34 32 -20 25 13 19 30 -8 23 -11 -3 -21 1 -24
9 -2 7 -2 2 0 -12z"/>
<path d="M13097 1653 c-6 -34 -5 -37 10 -14 6 10 8 23 3 30 -5 9 -9 3 -13 -16z"/>
<path d="M15654 1658 l-19 -23 23 19 c21 18 27 26 19 26 -2 0 -12 -10 -23 -22z"/>
<path d="M10830 1638 c0 -12 3 -17 8 -12 4 5 11 12 15 15 5 3 2 9 -7 12 -12 5
-16 0 -16 -15z"/>
<path d="M11580 1646 c0 -4 11 -24 25 -44 14 -20 25 -43 25 -51 0 -8 3 -12 6
-8 10 9 -12 64 -35 89 -12 12 -21 18 -21 14z"/>
<path d="M11941 1634 c0 -11 3 -14 6 -6 3 7 2 16 -1 19 -3 4 -6 -2 -5 -13z"/>
<path d="M12111 1637 c-8 -10 -7 -14 2 -14 8 0 14 6 14 14 0 7 -1 13 -2 13 -2
0 -8 -6 -14 -13z"/>
<path d="M12200 1643 c0 -6 -2 -17 -5 -25 -3 -8 3 -13 20 -14 14 -1 25 2 25 8
0 5 5 6 10 3 6 -3 10 -2 10 3 0 18 -30 22 -30 4 -1 -13 -4 -11 -15 8 -8 14
-14 20 -15 13z"/>
<path d="M12273 1635 c-3 -9 -3 -18 -1 -21 3 -3 8 4 11 16 6 23 -1 27 -10 5z"/>
<path d="M12889 1623 c-5 -15 -14 -21 -21 -17 -7 5 -8 3 -2 -7 4 -8 7 -25 6
-39 -1 -14 2 -38 7 -55 8 -27 9 -25 10 23 1 49 2 52 17 38 26 -26 29 -18 4 9
l-23 25 21 23 c18 19 19 24 6 24 -9 0 -20 -11 -25 -24z"/>
<path d="M12820 1636 c0 -2 8 -10 18 -17 15 -13 16 -12 3 4 -13 16 -21 21 -21
13z"/>
<path d="M12999 1622 c6 -12 16 -24 22 -28 8 -4 8 -1 0 14 -6 12 -16 24 -22
28 -8 4 -8 1 0 -14z"/>
<path d="M14458 1633 c12 -2 32 -2 45 0 12 2 2 4 -23 4 -25 0 -35 -2 -22 -4z"/>
<path d="M15610 1630 c-9 -6 -10 -10 -3 -10 6 0 15 5 18 10 8 12 4 12 -15 0z"/>
<path d="M10785 1621 c-3 -5 -1 -12 5 -16 5 -3 10 1 10 9 0 18 -6 21 -15 7z"/>
<path d="M12020 1610 c0 -12 7 -20 18 -20 14 0 15 2 2 10 -13 9 -13 11 0 20
13 8 12 10 -2 10 -11 0 -18 -8 -18 -20z"/>
<path d="M12062 1610 c0 -14 2 -19 5 -12 2 6 2 18 0 25 -3 6 -5 1 -5 -13z"/>
<path d="M12157 1614 c6 -15 23 -19 23 -5 0 5 -7 11 -14 14 -10 4 -13 1 -9 -9z"/>
<path d="M14530 1626 c0 -2 7 -7 16 -10 8 -3 12 -2 9 4 -6 10 -25 14 -25 6z"/>
<path d="M15796 1616 c17 -8 40 -26 52 -41 12 -15 22 -23 22 -17 0 16 -69 72
-88 72 -10 -1 -4 -6 14 -14z"/>
<path d="M9486 1584 c-15 -33 -15 -36 -1 -30 9 3 21 6 26 6 5 0 9 14 9 30 0
40 -13 38 -34 -6z"/>
<path d="M11980 1609 c0 -15 18 -19 23 -6 3 8 -1 14 -9 14 -8 0 -14 -4 -14 -8z"/>
<path d="M14000 1616 c0 -2 7 -7 16 -10 8 -3 12 -2 9 4 -6 10 -25 14 -25 6z"/>
<path d="M13165 1600 c4 -6 11 -8 16 -5 14 9 11 15 -7 15 -8 0 -12 -5 -9 -10z"/>
<path d="M14108 1603 c7 -3 16 -2 19 1 4 3 -2 6 -13 5 -11 0 -14 -3 -6 -6z"/>
<path d="M14359 1583 l-24 -28 28 24 c15 14 27 26 27 28 0 8 -8 1 -31 -24z"/>
<path d="M14585 1590 c10 -11 20 -20 23 -20 3 0 -3 9 -13 20 -10 11 -20 20
-23 20 -3 0 3 -9 13 -20z"/>
<path d="M10800 1574 c-25 -13 -53 -23 -62 -24 -10 0 -18 -4 -18 -9 0 -5 -18
-12 -40 -16 -22 -4 -42 -11 -46 -16 -3 -5 -14 -9 -25 -9 -10 0 -19 -4 -19 -10
0 -5 -7 -10 -15 -10 -8 0 -15 -4 -15 -9 0 -4 11 -6 25 -3 14 2 22 8 19 13 -8
13 10 11 25 -3 10 -11 12 -10 9 2 -2 11 7 16 32 18 19 2 41 9 48 15 10 8 16 7
21 -2 7 -10 13 -11 31 -1 25 13 43 4 20 -10 -13 -8 -12 -10 3 -10 12 0 17 8
18 28 2 26 2 26 6 2 8 -45 18 -40 16 8 -2 40 -1 43 6 17 l9 -30 1 27 c0 14 4
33 7 42 8 20 0 19 -56 -10z m0 -34 c0 -5 -8 -10 -17 -10 -15 0 -16 2 -3 10 19
12 20 12 20 0z"/>
<path d="M12808 1593 c6 -2 18 -2 25 0 6 3 1 5 -13 5 -14 0 -19 -2 -12 -5z"/>
<path d="M13096 1588 c-9 -5 -16 -5 -17 -1 -2 26 -27 -69 -27 -102 0 -37 1
-36 8 13 10 65 22 80 68 84 34 3 34 4 10 9 -14 3 -33 2 -42 -3z"/>
<path d="M13790 1576 c0 -31 6 -34 13 -6 3 11 1 23 -4 26 -5 3 -9 -6 -9 -20z"/>
<path d="M12331 1574 c0 -11 3 -14 6 -6 3 7 2 16 -1 19 -3 4 -6 -2 -5 -13z"/>
<path d="M13397 1566 c10 -13 20 -20 21 -15 5 12 -17 39 -30 39 -5 0 -1 -11 9
-24z"/>
<path d="M13850 1568 c-11 -22 -10 -22 4 -4 14 17 16 17 16 4 0 -9 4 -19 9
-22 5 -4 7 3 4 14 -8 30 -21 33 -33 8z"/>
<path d="M13815 1571 c-3 -5 -1 -12 5 -16 5 -3 10 1 10 9 0 18 -6 21 -15 7z"/>
<path d="M13894 1568 c-4 -7 -3 -10 1 -5 5 4 17 0 27 -10 17 -15 18 -15 17 8
0 13 -3 18 -6 11 -4 -9 -8 -10 -18 -2 -10 8 -15 8 -21 -2z"/>
<path d="M13952 1560 c0 -14 2 -19 5 -12 2 6 2 18 0 25 -3 6 -5 1 -5 -13z"/>
<path d="M13987 1559 c4 -13 8 -18 11 -10 2 7 -1 18 -6 23 -8 8 -9 4 -5 -13z"/>
<path d="M14030 1556 c0 -20 5 -26 21 -26 15 0 20 5 17 22 -5 34 -38 37 -38 4z"/>
<path d="M11220 1552 c6 -13 14 -21 18 -18 3 4 -2 14 -12 24 -18 16 -18 16 -6
-6z"/>
<path d="M14130 1555 c0 -8 2 -15 4 -15 2 0 6 7 10 15 3 8 1 15 -4 15 -6 0
-10 -7 -10 -15z"/>
<path d="M14514 1559 c-3 -5 7 -9 22 -9 15 0 24 3 20 7 -11 11 -35 12 -42 2z"/>
<path d="M11941 1544 c0 -11 3 -14 6 -6 3 7 2 16 -1 19 -3 4 -6 -2 -5 -13z"/>
<path d="M12120 1544 c0 -8 5 -12 10 -9 6 4 8 11 5 16 -9 14 -15 11 -15 -7z"/>
<path d="M14435 1550 c-3 -5 -1 -10 4 -10 6 0 11 5 11 10 0 6 -2 10 -4 10 -3
0 -8 -4 -11 -10z"/>
<path d="M14476 1552 c-3 -5 1 -9 9 -9 8 0 12 4 9 9 -3 4 -7 8 -9 8 -2 0 -6
-4 -9 -8z"/>
<path d="M12000 1535 c0 -8 4 -15 10 -15 5 0 7 7 4 15 -4 8 -8 15 -10 15 -2 0
-4 -7 -4 -15z"/>
<path d="M12046 1538 c3 -5 10 -6 15 -3 13 9 11 12 -6 12 -8 0 -12 -4 -9 -9z"/>
<path d="M12960 1525 c13 -14 26 -25 28 -25 3 0 -5 11 -18 25 -13 14 -26 25
-28 25 -3 0 5 -11 18 -25z"/>
<path d="M14080 1539 c0 -5 5 -7 10 -4 6 3 10 8 10 11 0 2 -4 4 -10 4 -5 0
-10 -5 -10 -11z"/>
<path d="M11314 1526 c3 -21 41 -71 84 -112 46 -44 66 -90 50 -118 -9 -17 -9
-17 17 0 23 15 32 16 59 6 l31 -12 -25 20 -25 20 25 0 c22 1 23 2 5 9 -19 8
-19 8 3 20 12 6 22 16 22 22 0 6 -14 -1 -32 -16 -37 -32 -47 -22 -48 45 -1 37
-5 48 -28 65 l-27 20 23 -29 c21 -28 30 -90 14 -100 -4 -2 -16 8 -26 23 -11
15 -31 36 -45 46 -14 9 -36 32 -48 51 -19 29 -20 33 -5 36 13 3 12 5 -4 10
-14 3 -21 1 -20 -6z"/>
<path d="M11581 1487 l-1 -58 30 21 c17 12 30 26 30 32 0 6 -10 3 -21 -8 -22
-19 -22 -19 -9 5 11 21 10 23 -3 18 -11 -4 -17 2 -20 21 -2 15 -5 1 -6 -31z"/>
<path d="M15020 1531 c0 -6 4 -13 10 -16 6 -3 7 1 4 9 -7 18 -14 21 -14 7z"/>
<path d="M15873 1500 c0 -25 2 -35 4 -22 2 12 2 32 0 45 -2 12 -4 2 -4 -23z"/>
<path d="M11540 1520 c-8 -5 -12 -11 -10 -14 3 -2 14 2 24 10 22 15 10 19 -14
4z"/>
<path d="M14622 1500 c0 -19 2 -27 5 -17 2 9 2 25 0 35 -3 9 -5 1 -5 -18z"/>
<path d="M11240 1511 c0 -6 4 -13 10 -16 6 -3 7 1 4 9 -7 18 -14 21 -14 7z"/>
<path d="M14322 1490 c0 -19 2 -27 5 -17 2 9 2 25 0 35 -3 9 -5 1 -5 -18z"/>
<path d="M14411 1509 c12 -8 12 -11 -1 -19 -8 -5 -11 -10 -6 -10 5 0 18 7 28
17 10 9 21 13 25 9 4 -4 1 -11 -7 -16 -11 -7 -10 -9 7 -7 34 2 11 31 -27 33
-23 1 -28 -1 -19 -7z"/>
<path d="M14490 1509 c0 -5 5 -7 10 -4 6 3 10 2 10 -4 0 -5 -6 -12 -12 -14
-10 -4 -10 -6 0 -6 7 -1 15 6 18 14 4 8 10 15 16 15 5 0 6 -4 3 -10 -3 -5 1
-10 11 -10 13 0 14 3 4 15 -14 17 -60 20 -60 4z"/>
<path d="M15777 1513 c-4 -3 -7 -11 -7 -17 0 -6 5 -5 12 2 6 6 9 14 7 17 -3 3
-9 2 -12 -2z"/>
<path d="M15800 1508 c0 -4 7 -8 15 -8 8 0 15 4 15 8 0 5 -7 9 -15 9 -8 0 -15
-4 -15 -9z"/>
<path d="M15240 1506 c0 -3 9 -23 20 -43 15 -28 20 -32 20 -17 0 12 -9 31 -20
44 -11 13 -20 20 -20 16z"/>
<path d="M15626 1501 c9 -9 34 -9 34 -1 0 5 -9 8 -20 7 -10 -1 -17 -3 -14 -6z"/>
<path d="M10213 1493 c20 -2 54 -2 75 0 20 2 3 4 -38 4 -41 0 -58 -2 -37 -4z"/>
<path d="M11301 1475 c35 -40 59 -77 59 -90 -1 -5 -10 1 -20 14 -11 13 -20 19
-20 13 0 -5 7 -15 16 -22 8 -8 26 -32 39 -54 21 -38 22 -46 13 -101 -5 -33
-17 -66 -26 -72 -19 -16 -18 -16 48 -3 39 7 57 7 69 -2 9 -7 13 -9 9 -4 -4 5
-3 16 2 26 9 16 7 16 -36 1 -40 -14 -46 -14 -54 -1 -5 8 -10 22 -10 30 0 12 2
12 8 2 6 -9 12 -5 20 13 17 36 14 45 -4 15 -15 -25 -15 -25 -10 13 3 20 8 54
11 75 4 33 3 34 -4 7 -7 -27 -9 -28 -16 -10 -25 67 -59 124 -87 150 l-33 30
26 -30z"/>
<path d="M12200 1490 c0 -5 5 -10 11 -10 5 0 7 5 4 10 -3 6 -8 10 -11 10 -2 0
-4 -4 -4 -10z"/>
<path d="M12800 1496 c0 -2 8 -10 18 -17 15 -13 16 -12 3 4 -13 16 -21 21 -21
13z"/>
<path d="M13317 1493 c-3 -5 8 -8 23 -8 15 0 26 3 23 8 -2 4 -13 7 -23 7 -10
0 -21 -3 -23 -7z"/>
<path d="M9473 1472 c-29 -9 -53 -19 -53 -22 0 -3 19 -6 43 -6 23 0 76 -3 117
-7 47 -4 64 -3 45 2 -25 7 -21 9 30 10 l60 1 -30 20 c-38 25 -136 26 -212 2z"/>
<path d="M13033 1445 c30 -45 59 -105 69 -145 3 -8 -5 -24 -15 -37 -17 -19
-23 -20 -36 -11 -9 7 -5 0 8 -15 25 -27 38 -36 26 -16 -8 11 23 51 34 44 4 -2
13 6 21 18 12 21 12 21 -5 7 -17 -14 -18 -13 -12 3 5 12 3 16 -5 11 -8 -5 -9
0 -4 17 15 50 16 63 3 34 l-13 -29 -17 42 c-9 23 -17 49 -17 57 0 8 -4 14 -8
13 -5 -2 -21 11 -36 27 -23 25 -22 22 7 -20z"/>
<path d="M13130 1464 c-6 -14 -10 -37 -9 -52 1 -19 4 -15 10 16 4 23 11 47 14
52 3 6 4 10 0 10 -3 0 -10 -12 -15 -26z"/>
<path d="M13273 1466 c-10 -11 -9 -15 4 -20 9 -4 18 -4 21 -1 3 3 0 5 -8 5
-10 0 -10 3 0 15 16 19 -1 19 -17 1z"/>
<path d="M11140 1456 c0 -21 21 -31 31 -15 5 8 3 17 -4 21 -18 12 -27 10 -27
-6z"/>
<path d="M12269 1453 c-13 -16 -12 -17 4 -4 16 13 21 21 13 21 -2 0 -10 -8
-17 -17z"/>
<path d="M12891 1454 c0 -11 3 -14 6 -6 3 7 2 16 -1 19 -3 4 -6 -2 -5 -13z"/>
<path d="M13367 1451 c-3 -12 -1 -21 3 -21 14 0 19 15 11 29 -6 9 -10 7 -14
-8z"/>
<path d="M9280 1449 c-36 -4 -103 -12 -150 -19 -47 -6 -90 -12 -97 -12 -7 -1
-10 -4 -8 -7 4 -8 136 4 205 19 30 6 78 10 106 8 40 -3 51 -1 47 9 -6 14 -6
14 -103 2z"/>
<path d="M9817 1453 c18 -2 50 -2 70 0 21 2 7 4 -32 4 -38 0 -55 -2 -38 -4z"/>
<path d="M13230 1450 c-17 -11 -22 -60 -5 -53 18 6 37 -24 41 -63 2 -25 0 -33
-9 -28 -7 4 -9 4 -5 0 4 -5 3 -19 -3 -33 -5 -15 -5 -22 0 -18 5 3 11 -5 13
-17 3 -25 42 -38 60 -20 6 6 0 8 -16 5 -21 -4 -28 0 -36 22 -13 34 -13 55 0
35 8 -13 10 -12 10 4 0 15 2 16 15 6 14 -11 14 -10 6 14 -10 24 -7 30 10 28 4
-1 5 13 3 30 -4 34 -14 52 -14 25 0 -26 -23 -20 -55 13 -28 29 -28 30 -9 45
21 16 17 20 -6 5z"/>
<path d="M14390 1448 c0 -4 9 -8 20 -8 11 0 20 4 20 8 0 4 -9 8 -20 8 -11 0
-20 -4 -20 -8z"/>
<path d="M14509 1447 c5 -5 17 -5 28 2 16 9 15 10 -9 9 -16 -2 -24 -6 -19 -11z"/>
<path d="M15591 1444 c0 -11 3 -14 6 -6 3 7 2 16 -1 19 -3 4 -6 -2 -5 -13z"/>
<path d="M15765 1450 c4 -6 11 -8 16 -5 14 9 11 15 -7 15 -8 0 -12 -5 -9 -10z"/>
<path d="M13408 1443 c7 -3 16 -2 19 1 4 3 -2 6 -13 5 -11 0 -14 -3 -6 -6z"/>
<path d="M13993 1424 c0 -17 2 -22 7 -13 5 6 6 18 3 26 -8 19 -10 16 -10 -13z"/>
<path d="M14330 1442 c0 -18 64 -82 82 -82 7 0 -1 9 -19 20 -17 10 -39 32 -47
47 -8 15 -15 22 -16 15z"/>
<path d="M15150 1430 c6 -11 13 -20 16 -20 2 0 0 9 -6 20 -6 11 -13 20 -16 20
-2 0 0 -9 6 -20z"/>
<path d="M11190 1433 c0 -7 -3 -12 -7 -10 -5 1 -9 -1 -10 -5 -6 -18 -2 -28 12
-28 18 0 20 -17 3 -22 -7 -3 -8 -10 -2 -21 9 -15 12 -15 29 -3 18 13 18 14 1
31 -9 10 -15 23 -13 30 3 6 1 18 -4 26 -6 10 -9 10 -9 2z"/>
<path d="M12857 1434 c-4 -4 -2 -13 4 -21 9 -10 3 -12 -32 -9 -24 2 -33 1 -20
-1 l24 -5 -29 -19 c-16 -10 -24 -19 -19 -19 6 1 19 7 29 15 51 38 101 6 139
-87 l22 -54 0 88 c0 93 -14 125 -16 36 l-1 -53 -23 50 c-13 28 -24 44 -24 36
-1 -11 -4 -11 -17 0 -9 7 -19 22 -23 32 -4 10 -10 15 -14 11z"/>
<path d="M12970 1430 c0 -5 5 -10 10 -10 6 0 10 5 10 10 0 6 -4 10 -10 10 -5
0 -10 -4 -10 -10z"/>
<path d="M13311 1431 c-7 -5 -9 -11 -5 -14 5 -3 15 1 22 9 14 16 5 18 -17 5z"/>
<path d="M9408 1423 c6 -2 18 -2 25 0 6 3 1 5 -13 5 -14 0 -19 -2 -12 -5z"/>
<path d="M9698 1423 c12 -2 32 -2 45 0 12 2 2 4 -23 4 -25 0 -35 -2 -22 -4z"/>
<path d="M9928 1423 c6 -2 18 -2 25 0 6 3 1 5 -13 5 -14 0 -19 -2 -12 -5z"/>
<path d="M9263 1413 c9 -2 23 -2 30 0 6 3 -1 5 -18 5 -16 0 -22 -2 -12 -5z"/>
<path d="M11565 1410 c-3 -5 -1 -10 4 -10 6 0 11 5 11 10 0 6 -2 10 -4 10 -3
0 -8 -4 -11 -10z"/>
<path d="M13140 1373 c-3 -29 -1 -48 3 -44 5 5 7 28 5 52 l-3 44 -5 -52z"/>
<path d="M14410 1409 c0 -5 5 -7 10 -4 6 3 10 8 10 11 0 2 -4 4 -10 4 -5 0
-10 -5 -10 -11z"/>
<path d="M14498 1413 c7 -3 16 -2 19 1 4 3 -2 6 -13 5 -11 0 -14 -3 -6 -6z"/>
<path d="M15610 1401 c5 -11 15 -23 21 -27 6 -3 3 5 -6 20 -20 30 -30 35 -15
7z"/>
<path d="M11655 1400 c3 -5 11 -10 16 -10 6 0 7 5 4 10 -3 6 -11 10 -16 10 -6
0 -7 -4 -4 -10z"/>
<path d="M13390 1398 c0 -9 -10 -23 -22 -32 l-23 -17 23 11 c24 12 39 36 28
47 -3 4 -6 -1 -6 -9z"/>
<path d="M13893 1395 c0 -8 4 -12 9 -9 5 3 6 10 3 15 -9 13 -12 11 -12 -6z"/>
<path d="M15824 1388 l-19 -23 23 19 c21 18 27 26 19 26 -2 0 -12 -10 -23 -22z"/>
<path d="M13435 1391 c-3 -5 -1 -12 5 -16 5 -3 10 1 10 9 0 18 -6 21 -15 7z"/>
<path d="M15020 1380 c7 -14 26 -37 43 -51 l30 -25 -18 -89 c-12 -55 -26 -96
-38 -108 -20 -20 -20 -20 7 -13 17 4 26 2 26 -5 0 -7 8 -4 20 6 16 14 23 16
32 7 7 -7 9 -13 5 -13 -15 -3 -23 -5 -57 -17 -35 -12 -35 -12 -37 -79 l-3 -68
15 40 c8 22 15 41 15 42 0 1 12 9 28 17 15 8 21 15 13 16 -26 0 10 30 38 31
21 0 22 2 8 8 -20 8 -20 19 0 40 21 20 10 23 -23 6 -36 -19 -52 -5 -36 30 9
19 9 24 1 19 -14 -8 -3 69 16 108 9 20 10 27 2 25 -7 -1 -11 4 -9 11 1 6 -1
11 -5 10 -13 -4 -53 26 -53 38 0 6 -7 18 -17 25 -15 13 -15 12 -3 -11z m44
-350 c-21 -35 -24 -34 -17 3 3 15 12 27 20 27 12 0 11 -5 -3 -30z"/>
<path d="M15158 1383 c-23 -28 -30 -43 -19 -43 6 0 11 5 11 12 0 6 7 20 17 30
9 10 14 18 11 18 -3 0 -12 -8 -20 -17z"/>
<path d="M11708 1383 c10 -4 9 -9 -5 -19 -13 -11 -8 -10 17 2 48 23 48 24 9
23 -19 0 -28 -3 -21 -6z"/>
<path d="M15230 1360 c0 -23 4 -27 23 -23 13 3 24 11 24 19 0 10 -4 11 -13 3
-9 -8 -11 -6 -7 9 3 12 -1 19 -11 19 -11 0 -16 -9 -16 -27z"/>
<path d="M11845 1370 c-3 -6 1 -7 9 -4 18 7 21 14 7 14 -6 0 -13 -4 -16 -10z"/>
<path d="M12082 1351 c48 -41 72 -105 65 -174 -3 -32 -2 -45 3 -32 31 72 -14
191 -85 227 -11 6 -3 -4 17 -21z"/>
<path d="M14000 1361 c-8 -6 -17 -8 -21 -5 -4 2 -9 -2 -12 -10 -5 -11 0 -12
24 -3 16 6 29 15 29 19 0 10 -2 10 -20 -1z"/>
<path d="M14613 1363 c15 -2 37 -2 50 0 12 2 0 4 -28 4 -27 0 -38 -2 -22 -4z"/>
<path d="M15780 1360 c-9 -6 -10 -10 -3 -10 6 0 15 5 18 10 8 12 4 12 -15 0z"/>
<path d="M11803 1338 c-31 -35 -56 -78 -49 -85 3 -3 6 -1 6 5 0 6 16 31 35 56
37 49 41 60 8 24z"/>
<path d="M13429 1349 c10 -13 3 -40 -13 -51 -7 -5 -5 -8 6 -8 9 0 18 -6 21
-12 2 -7 3 4 2 25 -1 21 -7 43 -14 48 -7 6 -8 5 -2 -2z"/>
<path d="M14438 1353 c6 -2 18 -2 25 0 6 3 1 5 -13 5 -14 0 -19 -2 -12 -5z"/>
<path d="M14488 1353 c7 -3 16 -2 19 1 4 3 -2 6 -13 5 -11 0 -14 -3 -6 -6z"/>
<path d="M15010 1353 c0 -7 5 -15 10 -18 6 -3 10 -11 10 -16 0 -6 -4 -7 -10
-4 -5 3 -10 1 -10 -4 0 -6 4 -11 10 -11 5 0 18 -17 29 -37 23 -44 28 -28 6 23
-17 42 -45 83 -45 67z"/>
<path d="M14725 1330 c10 -11 20 -20 23 -20 3 0 -3 9 -13 20 -10 11 -20 20
-23 20 -3 0 3 -9 13 -20z"/>
<path d="M15548 1343 c6 -2 18 -2 25 0 6 3 1 5 -13 5 -14 0 -19 -2 -12 -5z"/>
<path d="M15708 1343 c12 -2 30 -2 40 0 9 3 -1 5 -23 4 -22 0 -30 -2 -17 -4z"/>
<path d="M13188 1324 c-29 -15 -38 -27 -14 -18 8 3 16 0 19 -8 2 -7 3 -5 2 5
-2 9 3 17 11 17 8 0 14 5 14 10 0 12 1 12 -32 -6z"/>
<path d="M13767 1333 c-14 -13 -6 -21 23 -25 32 -5 37 1 18 20 -13 13 -31 16
-41 5z"/>
<path d="M14210 1325 c-7 -8 -10 -22 -6 -30 6 -16 32 -20 40 -6 4 5 -3 7 -14
4 -21 -6 -25 3 -11 26 8 13 12 13 28 0 16 -13 17 -13 4 4 -16 21 -25 21 -41 2z"/>
<path d="M14514 1318 l-19 -23 23 19 c21 18 27 26 19 26 -2 0 -12 -10 -23 -22z"/>
<path d="M15600 1336 c0 -2 7 -7 16 -10 8 -3 12 -2 9 4 -6 10 -25 14 -25 6z"/>
<path d="M11218 1323 c-24 -6 -23 -30 2 -43 16 -8 20 -8 20 4 0 8 6 17 13 19
9 4 9 6 -1 6 -7 1 -10 6 -7 11 6 10 2 11 -27 3z"/>
<path d="M11620 1306 c19 -14 41 -34 48 -43 6 -9 12 -12 12 -6 0 7 -11 20 -25
31 -17 14 -21 22 -13 25 8 4 7 6 -4 6 -9 1 -25 4 -35 7 -10 4 -2 -5 17 -20z"/>
<path d="M13920 1298 c0 -23 3 -29 9 -19 8 12 4 51 -5 51 -2 0 -4 -15 -4 -32z"/>
<path d="M11272 1280 c0 -25 4 -56 8 -70 l8 -25 0 25 c0 14 -3 45 -7 70 l-8
45 -1 -45z"/>
<path d="M15439 1293 l-24 -28 28 24 c15 14 27 26 27 28 0 8 -8 1 -31 -24z"/>
<path d="M15640 1316 c0 -2 8 -10 18 -17 15 -13 16 -12 3 4 -13 16 -21 21 -21
13z"/>
<path d="M11100 1297 c0 -30 26 -71 70 -111 23 -20 48 -52 55 -69 l14 -32 -1
55 c0 43 -2 48 -7 25 -7 -29 -7 -29 -13 -6 -4 12 -11 20 -16 17 -5 -3 -22 8
-37 24 -31 33 -24 41 10 13 11 -10 8 -6 -7 9 -16 16 -37 43 -48 60 -14 23 -20
27 -20 15z"/>
<path d="M12019 1299 c-6 -4 1 -6 15 -6 15 0 29 3 31 8 6 9 -31 8 -46 -2z"/>
<path d="M15290 1306 c0 -2 7 -7 16 -10 8 -3 12 -2 9 4 -6 10 -25 14 -25 6z"/>
<path d="M11970 1288 c0 -4 4 -8 9 -8 6 0 12 4 15 8 3 5 -1 9 -9 9 -8 0 -15
-4 -15 -9z"/>
<path d="M14760 1247 l5 -52 3 44 c2 24 0 47 -5 52 -4 4 -6 -15 -3 -44z"/>
<path d="M15200 1285 c-11 -13 -10 -14 4 -9 9 3 16 10 16 15 0 13 -6 11 -20
-6z"/>
<path d="M11561 1286 c2 -2 15 -9 29 -15 24 -11 24 -11 6 3 -16 13 -49 24 -35
12z"/>
<path d="M13022 1270 c0 -14 2 -19 5 -12 2 6 2 18 0 25 -3 6 -5 1 -5 -13z"/>
<path d="M13378 1283 c7 -3 16 -2 19 1 4 3 -2 6 -13 5 -11 0 -14 -3 -6 -6z"/>
<path d="M15117 1254 c4 -21 1 -40 -8 -51 -8 -10 -1 -7 18 6 18 14 38 21 48
17 10 -4 14 -2 9 5 -4 6 0 15 7 20 10 6 4 9 -18 9 -18 0 -33 4 -33 9 0 5 -6
11 -14 14 -12 5 -13 -1 -9 -29z"/>
<path d="M13347 1251 c-4 -17 -3 -21 5 -13 5 5 8 16 6 23 -3 8 -7 3 -11 -10z"/>
<path d="M14116 1252 c-2 -4 7 -9 22 -10 21 -1 24 0 12 8 -18 12 -27 12 -34 2z"/>
<path d="M14667 1248 c-4 -13 -1 -16 15 -13 11 3 23 7 27 11 3 4 -2 4 -11 1
-9 -3 -18 -1 -21 6 -2 6 -6 4 -10 -5z"/>
<path d="M14723 1245 c0 -8 4 -15 9 -15 4 0 8 4 8 9 0 6 -4 12 -8 15 -5 3 -9
-1 -9 -9z"/>
<path d="M15403 1245 c-3 -9 -3 -18 -1 -21 3 -3 8 4 11 16 6 23 -1 27 -10 5z"/>
<path d="M16930 1247 c0 -23 -39 -66 -78 -86 -34 -17 -35 -19 -15 -29 16 -9
24 -8 33 3 7 8 19 15 26 15 8 0 14 7 14 15 0 8 6 12 13 9 8 -3 15 2 16 11 1 8
2 23 3 33 2 19 34 22 60 6 7 -5 148 -7 313 -5 211 2 314 -1 345 -9 32 -9 45
-9 48 -1 2 7 50 11 140 11 110 1 133 3 117 12 -14 9 -155 12 -510 14 -269 0
-498 4 -507 9 -13 5 -18 3 -18 -8z"/>
<path d="M11220 1233 c0 -7 7 -13 15 -13 8 0 15 6 15 13 0 8 -7 14 -15 14 -8
0 -15 -6 -15 -14z"/>
<path d="M11896 1241 c-4 -5 3 -7 14 -4 23 6 26 13 6 13 -8 0 -17 -4 -20 -9z"/>
<path d="M13999 1233 c-13 -16 -12 -17 4 -4 16 13 21 21 13 21 -2 0 -10 -8
-17 -17z"/>
<path d="M14540 1234 c0 -8 5 -12 10 -9 6 4 8 11 5 16 -9 14 -15 11 -15 -7z"/>
<path d="M13131 1224 c0 -11 3 -14 6 -6 3 7 2 16 -1 19 -3 4 -6 -2 -5 -13z"/>
<path d="M13387 1228 c2 -5 10 -8 18 -8 8 0 16 3 18 8 3 4 -5 7 -18 7 -13 0
-21 -3 -18 -7z"/>
<path d="M13931 1214 c-13 -16 -21 -21 -22 -13 -1 8 -4 3 -8 -11 -9 -30 -5
-40 15 -40 8 0 12 5 9 10 -10 16 5 51 18 44 7 -4 9 -4 5 1 -4 4 -3 14 3 22 6
7 9 13 6 13 -3 0 -15 -12 -26 -26z"/>
<path d="M14079 1227 c-13 -10 -33 -47 -26 -47 2 0 13 14 25 30 25 33 25 35 1
17z"/>
<path d="M15257 1229 c7 -7 15 -10 18 -7 3 3 -2 9 -12 12 -14 6 -15 5 -6 -5z"/>
<path d="M16370 1230 c0 -6 7 -10 16 -10 10 0 14 -6 10 -15 -6 -17 2 -19 24
-5 16 10 15 12 -22 28 -17 7 -28 8 -28 2z"/>
<path d="M11743 1185 c0 -27 2 -38 4 -22 2 15 2 37 0 50 -2 12 -4 0 -4 -28z"/>
<path d="M15692 1210 c0 -14 2 -19 5 -12 2 6 2 18 0 25 -3 6 -5 1 -5 -13z"/>
<path d="M18018 1223 c12 -2 32 -2 45 0 12 2 2 4 -23 4 -25 0 -35 -2 -22 -4z"/>
<path d="M11262 1190 c0 -19 2 -27 5 -17 2 9 2 25 0 35 -3 9 -5 1 -5 -18z"/>
<path d="M12937 1213 c-4 -3 -7 -11 -7 -17 0 -6 5 -5 12 2 6 6 9 14 7 17 -3 3
-9 2 -12 -2z"/>
<path d="M12980 1212 c0 -7 5 -22 10 -33 8 -14 7 -25 -3 -40 -11 -15 -16 -17
-20 -7 -4 9 -6 9 -6 1 -2 -20 19 -25 26 -6 6 16 8 15 14 -7 6 -22 7 -21 8 9 1
21 10 44 23 58 12 13 17 23 12 23 -5 0 -16 -10 -23 -22 l-14 -23 -13 30 c-7
17 -13 24 -14 17z"/>
<path d="M11538 1192 c-7 -11 -20 -21 -28 -25 -9 -3 -3 -6 13 -6 16 -1 26 3
22 9 -3 6 5 10 19 10 14 0 28 5 31 10 4 7 -3 8 -21 4 -19 -5 -25 -4 -20 5 12
18 -2 12 -16 -7z"/>
<path d="M13868 1198 c10 -13 10 -17 0 -21 -9 -4 -9 -6 -1 -6 20 -2 24 16 5
30 -15 13 -16 12 -4 -3z"/>
<path d="M15290 1206 c0 -2 8 -10 18 -17 15 -13 16 -12 3 4 -13 16 -21 21 -21
13z"/>
<path d="M17218 1203 c12 -2 32 -2 45 0 12 2 2 4 -23 4 -25 0 -35 -2 -22 -4z"/>
<path d="M17405 1200 c51 -8 202 -13 194 -6 -2 2 -58 6 -124 8 -75 4 -101 3
-70 -2z"/>
<path d="M12006 1185 c-9 -23 -8 -25 9 -25 17 0 19 9 6 28 -7 11 -10 10 -15
-3z"/>
<path d="M13143 1140 c0 -36 2 -50 4 -32 2 17 2 47 0 65 -2 17 -4 3 -4 -33z"/>
<path d="M14538 1188 c-9 -5 -6 -7 9 -5 12 2 25 6 28 8 8 9 -23 6 -37 -3z"/>
<path d="M14591 1184 c0 -11 3 -14 6 -6 3 7 2 16 -1 19 -3 4 -6 -2 -5 -13z"/>
<path d="M14698 1193 c7 -3 16 -2 19 1 4 3 -2 6 -13 5 -11 0 -14 -3 -6 -6z"/>
<path d="M16114 1184 c3 -9 6 -20 6 -25 0 -5 6 -4 14 3 10 9 11 17 4 26 -15
17 -31 15 -24 -4z"/>
<path d="M11846 1177 c3 -10 9 -15 12 -12 3 3 0 11 -7 18 -10 9 -11 8 -5 -6z"/>
<path d="M11871 1168 c0 -13 3 -17 6 -10 2 6 10 9 16 5 7 -4 6 1 -2 10 -18 22
-21 21 -20 -5z"/>
<path d="M11932 1170 c0 -14 2 -19 5 -12 2 6 2 18 0 25 -3 6 -5 1 -5 -13z"/>
<path d="M11954 1179 c-8 -14 11 -33 25 -25 6 4 10 15 10 24 -1 15 -2 15 -6 0
-2 -10 -9 -18 -15 -18 -5 0 -8 7 -4 15 6 17 0 20 -10 4z"/>
<path d="M12040 1175 c0 -6 7 -12 15 -12 8 0 15 6 15 12 0 6 -7 12 -15 12 -8
0 -15 -6 -15 -12z"/>
<path d="M14746 1173 c-6 -14 -5 -15 5 -6 7 7 10 15 7 18 -3 3 -9 -2 -12 -12z"/>
<path d="M15465 1180 c-3 -5 -1 -10 4 -10 6 0 11 5 11 10 0 6 -2 10 -4 10 -3
0 -8 -4 -11 -10z"/>
<path d="M14095 1170 c-3 -6 1 -7 9 -4 18 7 21 14 7 14 -6 0 -13 -4 -16 -10z"/>
<path d="M13111 1154 c0 -11 3 -14 6 -6 3 7 2 16 -1 19 -3 4 -6 -2 -5 -13z"/>
<path d="M14270 1161 c0 -5 7 -15 17 -22 15 -13 15 -12 4 9 -12 23 -21 28 -21
13z"/>
<path d="M14630 1159 c0 -5 9 -9 20 -9 11 0 20 2 20 4 0 2 -9 6 -20 9 -11 3
-20 1 -20 -4z"/>
<path d="M11421 1133 c-26 -18 -30 -23 -15 -24 11 0 13 -3 7 -6 -7 -2 -13 -10
-13 -16 0 -6 10 -1 23 11 13 12 28 22 34 22 11 0 12 25 2 33 -2 2 -19 -7 -38
-20z m39 14 c0 -2 -10 -12 -22 -23 l-23 -19 19 23 c18 21 26 27 26 19z"/>
<path d="M13093 1132 c47 -58 35 -141 -35 -239 l-33 -46 -7 44 -6 44 1 -47 c1
-27 -1 -48 -5 -48 -5 0 -8 -15 -8 -32 l1 -33 13 31 c12 27 55 90 101 146 7 9
11 18 9 21 -3 2 0 17 6 32 18 46 2 106 -34 135 l-31 25 28 -33z"/>
<path d="M14490 1156 c0 -2 8 -10 18 -17 15 -13 16 -12 3 4 -13 16 -21 21 -21
13z"/>
<path d="M11265 1127 c3 -17 2 -26 -4 -23 -10 6 -26 -62 -17 -72 3 -3 6 3 6
13 0 10 9 33 21 51 11 19 18 40 16 47 -3 6 -6 3 -7 -8 l-1 -20 -10 20 c-8 16
-8 15 -4 -8z"/>
<path d="M11306 1120 c-14 -18 -29 -44 -32 -58 -4 -15 -11 -32 -16 -38 -5 -7
-4 -23 2 -38 15 -40 13 -42 -17 -14 -30 28 -92 62 -99 55 -3 -2 12 -12 32 -22
20 -9 53 -33 75 -52 l38 -34 -9 30 c-5 19 -4 45 3 68 6 21 9 44 8 52 -1 8 2
10 10 5 8 -5 10 -3 4 5 -4 7 2 22 16 37 12 13 20 26 17 29 -3 3 -17 -8 -32
-25z"/>
<path d="M13759 1136 c10 -11 8 -16 -6 -24 -10 -6 -15 -13 -11 -17 3 -3 15 -1
26 6 16 10 18 17 11 31 -5 10 -15 18 -21 18 -7 0 -7 -5 1 -14z"/>
<path d="M14719 1133 c-13 -16 -12 -17 4 -4 9 7 17 15 17 17 0 8 -8 3 -21 -13z"/>
<path d="M15183 1123 c-22 -22 -22 -23 -2 -23 11 0 17 5 14 10 -4 6 6 10 22
11 16 0 22 3 13 6 -8 3 -17 9 -20 12 -3 4 -15 -4 -27 -16z"/>
<path d="M15450 1130 c0 -5 5 -10 11 -10 5 0 7 5 4 10 -3 6 -8 10 -11 10 -2 0
-4 -4 -4 -10z"/>
<path d="M11750 1124 c0 -6 7 -19 16 -30 14 -18 14 -18 3 6 -14 31 -19 36 -19
24z"/>
<path d="M13295 1120 c-4 -6 -10 -8 -14 -6 -4 3 -13 1 -21 -4 -12 -7 -11 -12
4 -28 17 -19 16 -21 -3 -34 -12 -8 -18 -18 -14 -21 10 -10 25 -8 19 2 -3 5 1
14 9 21 8 7 15 9 15 5 0 -4 7 -2 15 5 17 14 20 40 5 40 -5 0 -7 -7 -4 -15 4
-8 1 -15 -5 -15 -15 0 -14 33 1 48 7 7 9 12 6 12 -4 0 -10 -5 -13 -10z m-15
-20 c0 -5 -5 -10 -11 -10 -5 0 -7 5 -4 10 3 6 8 10 11 10 2 0 4 -4 4 -10z"/>
<path d="M13912 1110 c0 -14 2 -19 5 -12 2 6 2 18 0 25 -3 6 -5 1 -5 -13z"/>
<path d="M13874 1106 c1 -8 5 -18 8 -22 4 -3 5 1 4 10 -1 8 -5 18 -8 22 -4 3
-5 -1 -4 -10z"/>
<path d="M14537 1109 c7 -7 15 -10 18 -7 3 3 -2 9 -12 12 -14 6 -15 5 -6 -5z"/>
<path d="M11355 1103 c-11 -3 -24 -9 -29 -13 -5 -5 0 -6 12 -3 16 4 21 0 24
-19 3 -19 5 -18 9 10 3 17 5 31 5 31 -1 -1 -10 -3 -21 -6z"/>
<path d="M12045 1100 c3 -5 8 -10 11 -10 2 0 4 5 4 10 0 6 -5 10 -11 10 -5 0
-7 -4 -4 -10z"/>
<path d="M14210 1106 c0 -2 9 -6 20 -9 11 -3 18 -1 14 4 -5 9 -34 13 -34 5z"/>
<path d="M11855 1090 c-3 -5 -1 -10 4 -10 6 0 11 5 11 10 0 6 -2 10 -4 10 -3
0 -8 -4 -11 -10z"/>
<path d="M12091 1057 c-29 -35 -30 -38 -7 -17 24 22 52 60 44 60 -2 0 -18 -19
-37 -43z"/>
<path d="M14081 1084 c0 -11 3 -14 6 -6 3 7 2 16 -1 19 -3 4 -6 -2 -5 -13z"/>
<path d="M14468 1093 c6 -2 18 -2 25 0 6 3 1 5 -13 5 -14 0 -19 -2 -12 -5z"/>
<path d="M14578 1093 c7 -3 16 -2 19 1 4 3 -2 6 -13 5 -11 0 -14 -3 -6 -6z"/>
<path d="M14638 1093 c7 -3 16 -2 19 1 4 3 -2 6 -13 5 -11 0 -14 -3 -6 -6z"/>
<path d="M11408 1074 c-15 -8 -30 -24 -34 -36 -5 -16 -8 -18 -15 -7 -5 9 -9
-28 -9 -94 0 -81 -3 -106 -12 -101 -7 4 -2 -7 11 -24 l22 -32 -23 -9 c-17 -8
-19 -10 -5 -10 11 -1 20 -12 24 -31 3 -17 10 -33 15 -36 11 -7 29 16 22 27 -2
4 1 9 8 11 9 3 9 6 0 12 -8 4 -16 -1 -21 -16 -10 -24 -12 -19 -15 34 -1 15 -5
30 -9 34 -11 12 -8 193 4 217 6 12 25 34 43 49 35 31 34 33 -6 12z"/>
<path d="M12841 1074 c0 -11 3 -14 6 -6 3 7 2 16 -1 19 -3 4 -6 -2 -5 -13z"/>
<path d="M13013 1050 c0 -25 2 -35 4 -22 2 12 2 32 0 45 -2 12 -4 2 -4 -23z"/>
<path d="M12910 1008 c-31 -70 -60 -152 -60 -172 0 -6 12 14 26 43 17 32 42
64 65 80 21 14 41 33 44 41 3 8 -5 5 -18 -8 -13 -12 -26 -20 -29 -17 -3 3 -13
-6 -22 -21 -30 -45 -28 -19 4 51 16 38 29 70 27 72 -2 2 -19 -29 -37 -69z"/>
<path d="M14031 1067 c-1 -18 25 -77 35 -77 2 0 -1 10 -7 22 -6 12 -15 33 -20
47 -5 17 -8 20 -8 8z"/>
<path d="M11800 1045 c13 -14 26 -25 28 -25 3 0 -5 11 -18 25 -13 14 -26 25
-28 25 -3 0 5 -11 18 -25z"/>
<path d="M14205 1059 c-11 -16 -1 -19 13 -3 7 8 8 14 3 14 -5 0 -13 -5 -16
-11z"/>
<path d="M14359 1043 l-24 -28 28 24 c15 14 27 26 27 28 0 8 -8 1 -31 -24z"/>
<path d="M14575 1050 c10 -11 20 -20 23 -20 3 0 -3 9 -13 20 -10 11 -20 20
-23 20 -3 0 3 -9 13 -20z"/>
<path d="M13971 1044 c0 -11 3 -14 6 -6 3 7 2 16 -1 19 -3 4 -6 -2 -5 -13z"/>
<path d="M15523 1053 c9 -2 23 -2 30 0 6 3 -1 5 -18 5 -16 0 -22 -2 -12 -5z"/>
<path d="M12952 1030 c0 -14 2 -19 5 -12 2 6 2 18 0 25 -3 6 -5 1 -5 -13z"/>
<path d="M13865 1040 c3 -5 8 -10 11 -10 2 0 4 5 4 10 0 6 -5 10 -11 10 -5 0
-7 -4 -4 -10z"/>
<path d="M11117 1033 c-10 -9 -9 -23 1 -23 5 0 9 7 9 15 0 17 -1 18 -10 8z"/>
<path d="M13068 1033 c6 -3 9 -10 5 -16 -4 -7 2 -5 13 3 10 8 20 15 22 16 2 1
-10 1 -25 1 -15 0 -22 -2 -15 -4z"/>
<path d="M12750 1024 c0 -6 7 -19 16 -30 14 -18 14 -18 3 6 -14 31 -19 36 -19
24z"/>
<path d="M13930 1021 c0 -6 4 -13 10 -16 6 -3 7 1 4 9 -7 18 -14 21 -14 7z"/>
<path d="M14172 1001 c1 -15 8 -28 15 -28 7 0 13 4 13 9 0 4 -5 8 -11 8 -5 0
-7 5 -4 10 4 6 11 7 17 4 6 -4 9 -1 6 6 -2 7 -12 14 -21 16 -13 2 -17 -4 -15
-25z"/>
<path d="M11847 1009 c7 -7 15 -10 18 -7 3 3 -2 9 -12 12 -14 6 -15 5 -6 -5z"/>
<path d="M12815 1009 c-4 -6 -5 -12 -2 -15 2 -3 7 2 10 11 7 17 1 20 -8 4z"/>
<path d="M13164 1004 c-18 -14 -18 -15 4 -4 12 6 22 13 22 15 0 8 -5 6 -26
-11z"/>
<path d="M14428 1013 c6 -2 18 -2 25 0 6 3 1 5 -13 5 -14 0 -19 -2 -12 -5z"/>
<path d="M16142 964 c15 -70 46 -110 108 -140 79 -39 153 -37 214 4 l45 30 28
-24 c31 -27 32 -27 160 -15 102 10 135 26 167 81 18 31 17 31 -23 -9 l-41 -41
-92 -2 c-145 -3 -150 -2 -177 28 -21 25 -25 26 -36 11 -18 -25 -95 -57 -140
-57 -93 0 -151 38 -190 128 -13 28 -26 52 -28 52 -3 0 0 -21 5 -46z"/>
<path d="M11551 993 c-1 -6 -4 -20 -7 -30 -5 -17 -5 -17 6 0 6 10 9 23 6 30
-3 9 -5 9 -5 0z"/>
<path d="M13008 993 c7 -3 16 -2 19 1 4 3 -2 6 -13 5 -11 0 -14 -3 -6 -6z"/>
<path d="M13255 990 c3 -5 8 -10 11 -10 2 0 4 5 4 10 0 6 -5 10 -11 10 -5 0
-7 -4 -4 -10z"/>
<path d="M14120 989 c0 -5 5 -7 10 -4 6 3 10 8 10 11 0 2 -4 4 -10 4 -5 0 -10
-5 -10 -11z"/>
<path d="M14613 965 c0 -22 2 -30 4 -17 2 12 2 30 0 40 -3 9 -5 -1 -4 -23z"/>
<path d="M11489 949 l-44 -41 48 38 c26 21 47 40 47 41 0 8 -11 0 -51 -38z"/>
<path d="M13145 970 c-3 -5 -2 -10 4 -10 5 0 13 5 16 10 3 6 2 10 -4 10 -5 0
-13 -4 -16 -10z"/>
<path d="M12800 958 c0 -5 -4 -6 -10 -3 -6 4 -7 -1 -3 -12 6 -16 5 -17 -13 -3
-18 14 -18 14 -5 -2 7 -10 17 -15 22 -12 5 3 10 -7 10 -23 1 -25 2 -24 8 7 4
20 10 40 14 46 3 6 0 11 -8 11 -8 0 -15 -4 -15 -9z"/>
<path d="M14046 954 c-3 -8 -11 -12 -17 -8 -8 5 -9 3 -5 -5 6 -9 12 -9 25 3
10 9 21 13 24 9 4 -3 7 -1 7 5 0 18 -27 14 -34 -4z"/>
<path d="M14291 954 c0 -11 3 -14 6 -6 3 7 2 16 -1 19 -3 4 -6 -2 -5 -13z"/>
<path d="M14514 948 c3 -15 26 -23 26 -8 0 6 -4 9 -9 6 -5 -4 -12 -1 -14 4 -3
6 -4 5 -3 -2z"/>
<path d="M15144 928 c-36 -32 -82 -114 -70 -125 3 -3 15 16 26 43 12 26 38 63
58 81 20 18 34 33 30 33 -4 0 -24 -15 -44 -32z"/>
<path d="M15570 942 c0 -8 5 -10 13 -5 6 4 20 6 30 5 9 -2 17 2 17 8 0 5 -13
9 -30 8 -17 -1 -30 -8 -30 -16z"/>
<path d="M15650 950 c0 -5 5 -10 11 -10 5 0 7 5 4 10 -3 6 -8 10 -11 10 -2 0
-4 -4 -4 -10z"/>
<path d="M14465 940 c3 -5 8 -10 11 -10 2 0 4 5 4 10 0 6 -5 10 -11 10 -5 0
-7 -4 -4 -10z"/>
<path d="M15506 942 c-2 -4 6 -8 20 -8 13 0 24 4 24 8 0 4 -9 8 -19 8 -11 0
-22 -4 -25 -8z"/>
<path d="M14082 920 c0 -14 2 -19 5 -12 2 6 2 18 0 25 -3 6 -5 1 -5 -13z"/>
<path d="M11975 920 c-3 -5 -1 -10 4 -10 6 0 11 5 11 10 0 6 -2 10 -4 10 -3 0
-8 -4 -11 -10z"/>
<path d="M11992 909 l-23 -18 53 4 c29 3 61 6 71 6 9 0 17 4 17 10 0 5 -8 10
-17 10 -10 1 -32 3 -48 4 -18 2 -40 -5 -53 -16z"/>
<path d="M14320 918 c0 -20 44 -75 74 -89 11 -6 6 2 -13 17 -18 15 -39 41 -47
58 -7 17 -13 23 -14 14z"/>
<path d="M11855 911 c-3 -5 0 -13 6 -17 8 -4 9 -3 5 4 -4 7 -1 12 9 12 9 0 13
-4 10 -10 -4 -6 10 -10 34 -10 33 0 41 4 40 18 0 9 -3 12 -5 5 -4 -8 -15 -9
-37 -2 -40 11 -54 11 -62 0z"/>
<path d="M13940 910 c0 -5 5 -10 11 -10 5 0 7 5 4 10 -3 6 -8 10 -11 10 -2 0
-4 -4 -4 -10z"/>
<path d="M11300 890 c6 -11 8 -25 4 -31 -9 -15 15 -66 34 -74 13 -5 13 -3 -2
14 -10 11 -16 28 -14 38 4 17 -17 73 -28 73 -2 0 0 -9 6 -20z"/>
<path d="M11511 887 c-13 -21 -12 -21 5 -5 10 10 16 20 13 22 -3 3 -11 -5 -18
-17z"/>
<path d="M13982 893 c2 -11 -2 -17 -10 -15 -8 1 -11 -2 -7 -8 10 -16 35 8 28
26 -7 20 -14 18 -11 -3z"/>
<path d="M14576 872 c-22 -27 -24 -32 -7 -17 20 17 47 55 39 55 -2 0 -16 -17
-32 -38z"/>
<path d="M15748 903 c7 -3 16 -2 19 1 4 3 -2 6 -13 5 -11 0 -14 -3 -6 -6z"/>
<path d="M11426 867 c-13 -31 -16 -43 -31 -95 -4 -12 0 -19 10 -19 11 0 13 6
9 20 -4 12 -2 17 4 13 5 -3 16 2 23 12 13 15 12 16 -3 3 -16 -12 -18 -11 -18
10 0 13 9 39 20 57 11 17 15 32 10 32 -5 0 -16 -15 -24 -33z"/>
<path d="M14388 888 c5 -5 16 -8 23 -6 8 3 3 7 -10 11 -17 4 -21 3 -13 -5z"/>
<path d="M14440 889 c0 -5 5 -7 10 -4 6 3 10 8 10 11 0 2 -4 4 -10 4 -5 0 -10
-5 -10 -11z"/>
<path d="M14528 893 c6 -2 18 -2 25 0 6 3 1 5 -13 5 -14 0 -19 -2 -12 -5z"/>
<path d="M11116 876 c3 -8 13 -17 22 -21 13 -5 13 -2 -3 15 -21 24 -26 25 -19
6z"/>
<path d="M15383 883 c9 -2 25 -2 35 0 9 3 1 5 -18 5 -19 0 -27 -2 -17 -5z"/>
<path d="M15468 883 c7 -3 16 -2 19 1 4 3 -2 6 -13 5 -11 0 -14 -3 -6 -6z"/>
<path d="M15518 883 c7 -3 16 -2 19 1 4 3 -2 6 -13 5 -11 0 -14 -3 -6 -6z"/>
<path d="M15768 873 c7 -3 16 -2 19 1 4 3 -2 6 -13 5 -11 0 -14 -3 -6 -6z"/>
<path d="M11163 855 c0 -8 4 -12 9 -9 4 3 8 1 8 -5 0 -5 8 -12 18 -15 9 -3 -5
-4 -33 -2 -27 2 -42 2 -32 -1 9 -2 17 -8 17 -12 0 -8 41 -8 55 0 6 4 22 6 36
5 l26 -2 -20 28 c-11 15 -23 26 -25 23 -3 -2 1 -11 8 -20 20 -24 -13 -19 -35
5 -21 24 -32 25 -32 5z"/>
<path d="M12811 854 c0 -11 3 -14 6 -6 3 7 2 16 -1 19 -3 4 -6 -2 -5 -13z"/>
<path d="M14072 822 c2 -28 0 -52 -3 -52 -4 0 -19 -19 -34 -42 -25 -38 -29
-40 -36 -23 -6 16 -8 13 -8 -14 l-1 -34 41 52 c22 28 48 51 56 51 12 0 13 3 4
14 -7 8 -9 25 -6 39 4 14 2 34 -4 44 -9 14 -11 8 -9 -35z"/>
<path d="M14180 851 c-7 -13 -7 -22 0 -26 5 -3 10 -1 10 5 0 6 5 8 10 5 6 -3
10 -1 10 4 0 6 -5 11 -11 11 -5 0 -7 5 -4 10 3 6 4 10 1 10 -3 0 -10 -9 -16
-19z"/>
<path d="M15149 853 c-13 -16 -12 -17 4 -4 9 7 17 15 17 17 0 8 -8 3 -21 -13z"/>
<path d="M15638 863 c7 -3 16 -2 19 1 4 3 -2 6 -13 5 -11 0 -14 -3 -6 -6z"/>
<path d="M12210 852 c-53 -7 -39 -19 17 -15 62 5 95 20 41 19 -18 -1 -44 -3
-58 -4z"/>
<path d="M13991 844 c0 -11 3 -14 6 -6 3 7 2 16 -1 19 -3 4 -6 -2 -5 -13z"/>
<path d="M15368 853 c6 -2 18 -2 25 0 6 3 1 5 -13 5 -14 0 -19 -2 -12 -5z"/>
<path d="M15428 853 c6 -2 18 -2 25 0 6 3 1 5 -13 5 -14 0 -19 -2 -12 -5z"/>
<path d="M12087 837 c3 -4 8 -6 11 -3 3 3 11 1 19 -5 10 -9 13 -8 13 3 0 8
-10 14 -24 14 -14 0 -22 -4 -19 -9z"/>
<path d="M11691 824 c0 -11 3 -14 6 -6 3 7 2 16 -1 19 -3 4 -6 -2 -5 -13z"/>
<path d="M11946 830 c-19 -6 -19 -7 2 -12 12 -4 24 -2 27 2 8 13 -8 18 -29 10z"/>
<path d="M11730 818 c0 -4 7 -8 15 -8 8 0 15 4 15 8 0 5 -7 9 -15 9 -8 0 -15
-4 -15 -9z"/>
<path d="M11790 820 c0 -5 5 -10 11 -10 5 0 7 5 4 10 -3 6 -8 10 -11 10 -2 0
-4 -4 -4 -10z"/>
<path d="M11820 820 c0 -13 20 -13 40 0 12 8 9 10 -12 10 -16 0 -28 -4 -28
-10z"/>
<path d="M13944 819 c-4 -7 -3 -9 3 -6 7 4 10 -3 9 -17 0 -13 -9 -29 -18 -35
-21 -13 -22 -8 -7 22 10 21 10 21 -6 2 -15 -19 -16 -38 -2 -35 3 0 21 7 39 15
20 9 26 14 15 15 -13 0 -17 5 -12 19 7 22 -10 37 -21 20z"/>
<path d="M12253 813 c-7 -3 -13 -8 -13 -13 0 -10 24 -7 28 4 5 11 -1 14 -15 9z"/>
<path d="M12827 760 c3 -36 7 -66 8 -68 1 -1 5 25 9 59 4 33 5 64 2 67 -3 3
-6 -6 -7 -19 l-1 -24 -8 25 c-6 16 -7 1 -3 -40z"/>
<path d="M15105 810 c-3 -5 -1 -10 4 -10 6 0 11 5 11 10 0 6 -2 10 -4 10 -3 0
-8 -4 -11 -10z"/>
<path d="M12216 801 c-4 -7 -5 -15 -2 -18 9 -9 19 4 14 18 -4 11 -6 11 -12 0z"/>
<path d="M13810 801 c0 -6 4 -13 10 -16 6 -3 7 1 4 9 -7 18 -14 21 -14 7z"/>
<path d="M13876 797 c3 -10 9 -15 12 -12 3 3 0 11 -7 18 -10 9 -11 8 -5 -6z"/>
<path d="M12070 790 c0 -5 7 -10 16 -10 8 0 12 5 9 10 -3 6 -10 10 -16 10 -5
0 -9 -4 -9 -10z"/>
<path d="M12115 790 c-3 -5 1 -10 10 -10 9 0 13 5 10 10 -3 6 -8 10 -10 10 -2
0 -7 -4 -10 -10z"/>
<path d="M11700 780 c-12 -8 -10 -10 8 -10 13 0 20 4 17 10 -7 12 -6 12 -25 0z"/>
<path d="M11845 780 c-3 -5 1 -10 10 -10 9 0 13 5 10 10 -3 6 -8 10 -10 10 -2
0 -7 -4 -10 -10z"/>
<path d="M11912 781 c-11 -7 -11 -9 2 -14 10 -4 16 -1 16 8 0 17 -1 17 -18 6z"/>
<path d="M11945 780 c3 -5 13 -10 21 -10 8 0 14 5 14 10 0 6 -9 10 -21 10 -11
0 -17 -4 -14 -10z"/>
<path d="M11763 773 c9 -2 25 -2 35 0 9 3 1 5 -18 5 -19 0 -27 -2 -17 -5z"/>
<path d="M13775 770 c3 -5 8 -10 11 -10 2 0 4 5 4 10 0 6 -5 10 -11 10 -5 0
-7 -4 -4 -10z"/>
<path d="M12985 725 c-3 -26 -4 -49 -2 -51 3 -3 8 16 12 41 3 26 4 49 2 51 -3
3 -8 -16 -12 -41z"/>
<path d="M13760 743 c24 -37 27 -39 27 -18 0 8 -2 13 -5 10 -2 -2 -13 6 -24
18 -16 18 -16 16 2 -10z"/>
<path d="M13846 754 c-3 -9 -11 -12 -18 -8 -7 4 -4 -3 7 -17 11 -13 20 -25 21
-27 1 -2 4 11 6 28 5 33 -6 50 -16 24z"/>
<path d="M13891 709 c-6 -18 -11 -39 -11 -48 1 -9 8 4 16 27 9 24 13 46 11 48
-3 3 -10 -9 -16 -27z"/>
<path d="M14474 729 c-2 -4 19 -6 46 -6 28 1 50 5 50 9 0 9 -90 6 -96 -3z"/>
<path d="M15058 713 c4 -20 7 -23 11 -12 3 9 16 15 29 14 12 -1 22 2 22 6 0 7
-35 19 -56 19 -7 0 -9 -11 -6 -27z"/>
<path d="M11426 707 c3 -10 9 -15 12 -12 3 3 0 11 -7 18 -10 9 -11 8 -5 -6z"/>
<path d="M13841 685 c0 -5 6 -19 14 -29 8 -11 15 -31 15 -45 0 -13 3 -22 6
-19 3 4 2 27 -2 53 -4 27 -10 42 -14 35 -6 -9 -9 -9 -13 1 -3 8 -6 10 -6 4z"/>
<path d="M14623 683 c15 -2 37 -2 50 0 12 2 0 4 -28 4 -27 0 -38 -2 -22 -4z"/>
<path d="M14308 673 c7 -3 16 -2 19 1 4 3 -2 6 -13 5 -11 0 -14 -3 -6 -6z"/>
<path d="M14660 660 c0 -5 7 -10 15 -10 8 0 15 5 15 10 0 6 -7 10 -15 10 -8 0
-15 -4 -15 -10z"/>
<path d="M14538 653 c7 -3 16 -2 19 1 4 3 -2 6 -13 5 -11 0 -14 -3 -6 -6z"/>
<path d="M14608 653 c6 -2 18 -2 25 0 6 3 1 5 -13 5 -14 0 -19 -2 -12 -5z"/>
<path d="M13982 630 c0 -14 2 -19 5 -12 2 6 2 18 0 25 -3 6 -5 1 -5 -13z"/>
<path d="M14268 643 c6 -2 18 -2 25 0 6 3 1 5 -13 5 -14 0 -19 -2 -12 -5z"/>
<path d="M13971 584 c0 -11 3 -14 6 -6 3 7 2 16 -1 19 -3 4 -6 -2 -5 -13z"/>
<path d="M568 523 c6 -2 18 -2 25 0 6 3 1 5 -13 5 -14 0 -19 -2 -12 -5z"/>
</g>
</svg>
